ISO-10303-21;
HEADER;
/* Generated by software containing ST-Developer
 * from STEP Tools, Inc. (www.steptools.com) 
 */

FILE_DESCRIPTION(
/* description */ (''),
/* implementation_level */ '2;1');

FILE_NAME(
/* name */ 'uvc32_mount_dyx0914.step',
/* time_stamp */ '2026-09-17T15:16:36+08:00',
/* author */ (''),
/* organization */ (''),
/* preprocessor_version */ 'ST-DEVELOPER v20.1',
/* originating_system */ 'Autodesk Translation Framework v15.8.0.0',
/* authorisation */ '');

FILE_SCHEMA (('AUTOMOTIVE_DESIGN { 1 0 10303 214 3 1 1 }'));
ENDSEC;

DATA;
#10=MECHANICAL_DESIGN_GEOMETRIC_PRESENTATION_REPRESENTATION('',(#13),#1904);
#11=SHAPE_REPRESENTATION_RELATIONSHIP('SRR','None',#1911,#12);
#12=ADVANCED_BREP_SHAPE_REPRESENTATION('',(#14),#1903);
#13=STYLED_ITEM('',(#1920),#14);
#14=MANIFOLD_SOLID_BREP('\X2\5B9E4F53\X0\1',#1137);
#15=CONICAL_SURFACE('',#1201,2.399999997624,0.785398163397448);
#16=CONICAL_SURFACE('',#1204,2.399999997624,0.785398163397448);
#17=CONICAL_SURFACE('',#1221,2.25,0.785398163397448);
#18=CONICAL_SURFACE('',#1223,2.25,0.785398163397448);
#19=ELLIPSE('',#1177,2.06543808679343,2.);
#20=ELLIPSE('',#1178,2.06543808679343,2.);
#21=ELLIPSE('',#1186,2.06543808679343,2.);
#22=ELLIPSE('',#1187,2.06543808679343,2.);
#23=CIRCLE('',#1159,2.5);
#24=CIRCLE('',#1160,2.5);
#25=CIRCLE('',#1163,2.5);
#26=CIRCLE('',#1164,2.5);
#27=CIRCLE('',#1167,2.5);
#28=CIRCLE('',#1168,2.5);
#29=CIRCLE('',#1172,2.5);
#30=CIRCLE('',#1173,2.5);
#31=CIRCLE('',#1179,0.95);
#32=CIRCLE('',#1180,0.95);
#33=CIRCLE('',#1181,0.95);
#34=CIRCLE('',#1182,0.95);
#35=CIRCLE('',#1193,2.);
#36=CIRCLE('',#1195,28.65);
#37=CIRCLE('',#1196,3.15);
#38=CIRCLE('',#1197,3.15);
#39=CIRCLE('',#1199,2.);
#40=CIRCLE('',#1202,1.65);
#41=CIRCLE('',#1203,1.65);
#42=CIRCLE('',#1205,1.65);
#43=CIRCLE('',#1206,1.65);
#44=CIRCLE('',#1208,28.65);
#45=CIRCLE('',#1211,1.65);
#46=CIRCLE('',#1213,1.65);
#47=CIRCLE('',#1215,1.65);
#48=CIRCLE('',#1216,1.65);
#49=CIRCLE('',#1218,1.65);
#50=CIRCLE('',#1219,1.65);
#51=CIRCLE('',#1220,1.65);
#52=CIRCLE('',#1222,3.15);
#53=CIRCLE('',#1224,3.15);
#54=CIRCLE('',#1226,28.65);
#55=CIRCLE('',#1227,28.65);
#56=CIRCLE('',#1237,0.95);
#57=CIRCLE('',#1239,0.95);
#58=CIRCLE('',#1241,0.95);
#59=CIRCLE('',#1244,0.95);
#60=CIRCLE('',#1249,2.);
#61=CIRCLE('',#1250,2.);
#62=CYLINDRICAL_SURFACE('',#1158,2.5);
#63=CYLINDRICAL_SURFACE('',#1162,2.5);
#64=CYLINDRICAL_SURFACE('',#1166,2.5);
#65=CYLINDRICAL_SURFACE('',#1171,2.5);
#66=CYLINDRICAL_SURFACE('',#1207,28.65);
#67=CYLINDRICAL_SURFACE('',#1210,1.65);
#68=CYLINDRICAL_SURFACE('',#1212,1.65);
#69=CYLINDRICAL_SURFACE('',#1214,1.65);
#70=CYLINDRICAL_SURFACE('',#1217,1.65);
#71=CYLINDRICAL_SURFACE('',#1225,28.65);
#72=CYLINDRICAL_SURFACE('',#1235,2.);
#73=CYLINDRICAL_SURFACE('',#1236,0.95);
#74=CYLINDRICAL_SURFACE('',#1238,0.95);
#75=CYLINDRICAL_SURFACE('',#1240,0.95);
#76=CYLINDRICAL_SURFACE('',#1247,0.95);
#77=CYLINDRICAL_SURFACE('',#1251,2.);
#78=CYLINDRICAL_SURFACE('',#1253,2.);
#79=FACE_BOUND('',#159,.T.);
#80=FACE_BOUND('',#173,.T.);
#81=FACE_BOUND('',#174,.T.);
#82=FACE_BOUND('',#175,.T.);
#83=FACE_BOUND('',#176,.T.);
#84=FACE_BOUND('',#177,.T.);
#85=FACE_BOUND('',#181,.T.);
#86=FACE_BOUND('',#188,.T.);
#87=FACE_BOUND('',#189,.T.);
#88=FACE_BOUND('',#206,.T.);
#89=FACE_BOUND('',#207,.T.);
#90=FACE_BOUND('',#210,.T.);
#91=FACE_BOUND('',#211,.T.);
#92=FACE_BOUND('',#214,.T.);
#93=FACE_BOUND('',#215,.T.);
#94=FACE_OUTER_BOUND('',#154,.T.);
#95=FACE_OUTER_BOUND('',#155,.T.);
#96=FACE_OUTER_BOUND('',#156,.T.);
#97=FACE_OUTER_BOUND('',#157,.T.);
#98=FACE_OUTER_BOUND('',#158,.T.);
#99=FACE_OUTER_BOUND('',#160,.T.);
#100=FACE_OUTER_BOUND('',#161,.T.);
#101=FACE_OUTER_BOUND('',#162,.T.);
#102=FACE_OUTER_BOUND('',#163,.T.);
#103=FACE_OUTER_BOUND('',#164,.T.);
#104=FACE_OUTER_BOUND('',#165,.T.);
#105=FACE_OUTER_BOUND('',#166,.T.);
#106=FACE_OUTER_BOUND('',#167,.T.);
#107=FACE_OUTER_BOUND('',#168,.T.);
#108=FACE_OUTER_BOUND('',#169,.T.);
#109=FACE_OUTER_BOUND('',#170,.T.);
#110=FACE_OUTER_BOUND('',#171,.T.);
#111=FACE_OUTER_BOUND('',#172,.T.);
#112=FACE_OUTER_BOUND('',#178,.T.);
#113=FACE_OUTER_BOUND('',#179,.T.);
#114=FACE_OUTER_BOUND('',#180,.T.);
#115=FACE_OUTER_BOUND('',#182,.T.);
#116=FACE_OUTER_BOUND('',#183,.T.);
#117=FACE_OUTER_BOUND('',#184,.T.);
#118=FACE_OUTER_BOUND('',#185,.T.);
#119=FACE_OUTER_BOUND('',#186,.T.);
#120=FACE_OUTER_BOUND('',#187,.T.);
#121=FACE_OUTER_BOUND('',#190,.T.);
#122=FACE_OUTER_BOUND('',#191,.T.);
#123=FACE_OUTER_BOUND('',#192,.T.);
#124=FACE_OUTER_BOUND('',#193,.T.);
#125=FACE_OUTER_BOUND('',#194,.T.);
#126=FACE_OUTER_BOUND('',#195,.T.);
#127=FACE_OUTER_BOUND('',#196,.T.);
#128=FACE_OUTER_BOUND('',#197,.T.);
#129=FACE_OUTER_BOUND('',#198,.T.);
#130=FACE_OUTER_BOUND('',#199,.T.);
#131=FACE_OUTER_BOUND('',#200,.T.);
#132=FACE_OUTER_BOUND('',#201,.T.);
#133=FACE_OUTER_BOUND('',#202,.T.);
#134=FACE_OUTER_BOUND('',#203,.T.);
#135=FACE_OUTER_BOUND('',#204,.T.);
#136=FACE_OUTER_BOUND('',#205,.T.);
#137=FACE_OUTER_BOUND('',#208,.T.);
#138=FACE_OUTER_BOUND('',#209,.T.);
#139=FACE_OUTER_BOUND('',#212,.T.);
#140=FACE_OUTER_BOUND('',#213,.T.);
#141=FACE_OUTER_BOUND('',#216,.T.);
#142=FACE_OUTER_BOUND('',#217,.T.);
#143=FACE_OUTER_BOUND('',#218,.T.);
#144=FACE_OUTER_BOUND('',#219,.T.);
#145=FACE_OUTER_BOUND('',#220,.T.);
#146=FACE_OUTER_BOUND('',#221,.T.);
#147=FACE_OUTER_BOUND('',#222,.T.);
#148=FACE_OUTER_BOUND('',#223,.T.);
#149=FACE_OUTER_BOUND('',#224,.T.);
#150=FACE_OUTER_BOUND('',#225,.T.);
#151=FACE_OUTER_BOUND('',#226,.T.);
#152=FACE_OUTER_BOUND('',#227,.T.);
#153=FACE_OUTER_BOUND('',#228,.T.);
#154=EDGE_LOOP('',(#722,#723,#724,#725));
#155=EDGE_LOOP('',(#726,#727,#728,#729));
#156=EDGE_LOOP('',(#730,#731,#732,#733));
#157=EDGE_LOOP('',(#734,#735,#736,#737));
#158=EDGE_LOOP('',(#738,#739,#740,#741));
#159=EDGE_LOOP('',(#742,#743,#744,#745));
#160=EDGE_LOOP('',(#746,#747,#748,#749,#750,#751));
#161=EDGE_LOOP('',(#752,#753,#754,#755));
#162=EDGE_LOOP('',(#756,#757,#758,#759));
#163=EDGE_LOOP('',(#760,#761,#762,#763));
#164=EDGE_LOOP('',(#764,#765,#766,#767));
#165=EDGE_LOOP('',(#768,#769,#770,#771));
#166=EDGE_LOOP('',(#772,#773,#774,#775));
#167=EDGE_LOOP('',(#776,#777,#778,#779));
#168=EDGE_LOOP('',(#780,#781,#782,#783));
#169=EDGE_LOOP('',(#784,#785,#786,#787));
#170=EDGE_LOOP('',(#788,#789,#790,#791));
#171=EDGE_LOOP('',(#792,#793,#794,#795,#796,#797,#798,#799,#800,#801,#802,
#803));
#172=EDGE_LOOP('',(#804,#805,#806,#807,#808,#809));
#173=EDGE_LOOP('',(#810));
#174=EDGE_LOOP('',(#811));
#175=EDGE_LOOP('',(#812));
#176=EDGE_LOOP('',(#813));
#177=EDGE_LOOP('',(#814,#815,#816,#817,#818,#819,#820,#821,#822,#823,#824,
#825));
#178=EDGE_LOOP('',(#826,#827,#828,#829));
#179=EDGE_LOOP('',(#830,#831,#832,#833,#834,#835));
#180=EDGE_LOOP('',(#836,#837,#838,#839,#840,#841));
#181=EDGE_LOOP('',(#842,#843,#844,#845));
#182=EDGE_LOOP('',(#846,#847,#848,#849));
#183=EDGE_LOOP('',(#850,#851,#852,#853,#854,#855));
#184=EDGE_LOOP('',(#856,#857,#858,#859));
#185=EDGE_LOOP('',(#860,#861,#862,#863));
#186=EDGE_LOOP('',(#864,#865,#866,#867,#868,#869,#870,#871,#872,#873,#874,
#875,#876,#877));
#187=EDGE_LOOP('',(#878,#879,#880,#881,#882,#883));
#188=EDGE_LOOP('',(#884));
#189=EDGE_LOOP('',(#885));
#190=EDGE_LOOP('',(#886,#887,#888,#889,#890,#891,#892,#893,#894,#895,#896,
#897,#898,#899));
#191=EDGE_LOOP('',(#900,#901,#902,#903));
#192=EDGE_LOOP('',(#904,#905,#906,#907,#908));
#193=EDGE_LOOP('',(#909,#910,#911,#912,#913));
#194=EDGE_LOOP('',(#914,#915,#916,#917));
#195=EDGE_LOOP('',(#918,#919,#920,#921,#922));
#196=EDGE_LOOP('',(#923,#924,#925,#926,#927));
#197=EDGE_LOOP('',(#928,#929,#930,#931,#932));
#198=EDGE_LOOP('',(#933,#934,#935,#936));
#199=EDGE_LOOP('',(#937,#938,#939,#940,#941));
#200=EDGE_LOOP('',(#942,#943,#944,#945,#946));
#201=EDGE_LOOP('',(#947,#948,#949,#950));
#202=EDGE_LOOP('',(#951,#952,#953,#954));
#203=EDGE_LOOP('',(#955,#956,#957,#958));
#204=EDGE_LOOP('',(#959,#960,#961,#962,#963));
#205=EDGE_LOOP('',(#964,#965,#966,#967,#968,#969));
#206=EDGE_LOOP('',(#970));
#207=EDGE_LOOP('',(#971));
#208=EDGE_LOOP('',(#972,#973,#974,#975));
#209=EDGE_LOOP('',(#976,#977,#978,#979,#980,#981));
#210=EDGE_LOOP('',(#982));
#211=EDGE_LOOP('',(#983));
#212=EDGE_LOOP('',(#984,#985,#986,#987));
#213=EDGE_LOOP('',(#988,#989,#990,#991,#992,#993));
#214=EDGE_LOOP('',(#994));
#215=EDGE_LOOP('',(#995));
#216=EDGE_LOOP('',(#996,#997,#998,#999));
#217=EDGE_LOOP('',(#1000,#1001,#1002,#1003));
#218=EDGE_LOOP('',(#1004,#1005,#1006,#1007));
#219=EDGE_LOOP('',(#1008,#1009,#1010,#1011));
#220=EDGE_LOOP('',(#1012));
#221=EDGE_LOOP('',(#1013));
#222=EDGE_LOOP('',(#1014));
#223=EDGE_LOOP('',(#1015));
#224=EDGE_LOOP('',(#1016,#1017,#1018,#1019));
#225=EDGE_LOOP('',(#1020,#1021,#1022,#1023));
#226=EDGE_LOOP('',(#1024,#1025,#1026,#1027,#1028));
#227=EDGE_LOOP('',(#1029,#1030,#1031,#1032));
#228=EDGE_LOOP('',(#1033,#1034,#1035,#1036,#1037));
#229=LINE('',#1581,#344);
#230=LINE('',#1583,#345);
#231=LINE('',#1585,#346);
#232=LINE('',#1586,#347);
#233=LINE('',#1589,#348);
#234=LINE('',#1591,#349);
#235=LINE('',#1592,#350);
#236=LINE('',#1595,#351);
#237=LINE('',#1597,#352);
#238=LINE('',#1598,#353);
#239=LINE('',#1600,#354);
#240=LINE('',#1601,#355);
#241=LINE('',#1605,#356);
#242=LINE('',#1607,#357);
#243=LINE('',#1609,#358);
#244=LINE('',#1610,#359);
#245=LINE('',#1613,#360);
#246=LINE('',#1615,#361);
#247=LINE('',#1617,#362);
#248=LINE('',#1619,#363);
#249=LINE('',#1620,#364);
#250=LINE('',#1623,#365);
#251=LINE('',#1624,#366);
#252=LINE('',#1630,#367);
#253=LINE('',#1633,#368);
#254=LINE('',#1636,#369);
#255=LINE('',#1638,#370);
#256=LINE('',#1639,#371);
#257=LINE('',#1644,#372);
#258=LINE('',#1648,#373);
#259=LINE('',#1650,#374);
#260=LINE('',#1651,#375);
#261=LINE('',#1656,#376);
#262=LINE('',#1660,#377);
#263=LINE('',#1662,#378);
#264=LINE('',#1663,#379);
#265=LINE('',#1666,#380);
#266=LINE('',#1668,#381);
#267=LINE('',#1669,#382);
#268=LINE('',#1674,#383);
#269=LINE('',#1677,#384);
#270=LINE('',#1678,#385);
#271=LINE('',#1681,#386);
#272=LINE('',#1682,#387);
#273=LINE('',#1686,#388);
#274=LINE('',#1688,#389);
#275=LINE('',#1692,#390);
#276=LINE('',#1695,#391);
#277=LINE('',#1704,#392);
#278=LINE('',#1706,#393);
#279=LINE('',#1711,#394);
#280=LINE('',#1713,#395);
#281=LINE('',#1717,#396);
#282=LINE('',#1720,#397);
#283=LINE('',#1724,#398);
#284=LINE('',#1726,#399);
#285=LINE('',#1728,#400);
#286=LINE('',#1729,#401);
#287=LINE('',#1731,#402);
#288=LINE('',#1733,#403);
#289=LINE('',#1735,#404);
#290=LINE('',#1736,#405);
#291=LINE('',#1739,#406);
#292=LINE('',#1741,#407);
#293=LINE('',#1742,#408);
#294=LINE('',#1746,#409);
#295=LINE('',#1747,#410);
#296=LINE('',#1748,#411);
#297=LINE('',#1752,#412);
#298=LINE('',#1754,#413);
#299=LINE('',#1756,#414);
#300=LINE('',#1758,#415);
#301=LINE('',#1761,#416);
#302=LINE('',#1762,#417);
#303=LINE('',#1764,#418);
#304=LINE('',#1765,#419);
#305=LINE('',#1768,#420);
#306=LINE('',#1771,#421);
#307=LINE('',#1779,#422);
#308=LINE('',#1781,#423);
#309=LINE('',#1782,#424);
#310=LINE('',#1783,#425);
#311=LINE('',#1785,#426);
#312=LINE('',#1789,#427);
#313=LINE('',#1791,#428);
#314=LINE('',#1792,#429);
#315=LINE('',#1794,#430);
#316=LINE('',#1799,#431);
#317=LINE('',#1805,#432);
#318=LINE('',#1811,#433);
#319=LINE('',#1812,#434);
#320=LINE('',#1814,#435);
#321=LINE('',#1817,#436);
#322=LINE('',#1821,#437);
#323=LINE('',#1827,#438);
#324=LINE('',#1835,#439);
#325=LINE('',#1840,#440);
#326=LINE('',#1844,#441);
#327=LINE('',#1850,#442);
#328=LINE('',#1853,#443);
#329=LINE('',#1855,#444);
#330=LINE('',#1856,#445);
#331=LINE('',#1858,#446);
#332=LINE('',#1860,#447);
#333=LINE('',#1862,#448);
#334=LINE('',#1864,#449);
#335=LINE('',#1866,#450);
#336=LINE('',#1868,#451);
#337=LINE('',#1873,#452);
#338=LINE('',#1877,#453);
#339=LINE('',#1881,#454);
#340=LINE('',#1889,#455);
#341=LINE('',#1894,#456);
#342=LINE('',#1897,#457);
#343=LINE('',#1899,#458);
#344=VECTOR('',#1258,10.);
#345=VECTOR('',#1259,10.);
#346=VECTOR('',#1260,10.);
#347=VECTOR('',#1261,10.);
#348=VECTOR('',#1264,10.);
#349=VECTOR('',#1265,10.);
#350=VECTOR('',#1266,10.);
#351=VECTOR('',#1269,10.);
#352=VECTOR('',#1270,10.);
#353=VECTOR('',#1271,10.);
#354=VECTOR('',#1274,10.);
#355=VECTOR('',#1275,10.);
#356=VECTOR('',#1278,10.);
#357=VECTOR('',#1279,10.);
#358=VECTOR('',#1280,10.);
#359=VECTOR('',#1281,10.);
#360=VECTOR('',#1284,10.);
#361=VECTOR('',#1285,10.);
#362=VECTOR('',#1286,10.);
#363=VECTOR('',#1287,10.);
#364=VECTOR('',#1288,10.);
#365=VECTOR('',#1291,10.);
#366=VECTOR('',#1292,10.);
#367=VECTOR('',#1297,10.);
#368=VECTOR('',#1300,10.);
#369=VECTOR('',#1303,10.);
#370=VECTOR('',#1304,10.);
#371=VECTOR('',#1305,10.);
#372=VECTOR('',#1310,10.);
#373=VECTOR('',#1315,10.);
#374=VECTOR('',#1316,10.);
#375=VECTOR('',#1317,10.);
#376=VECTOR('',#1322,10.);
#377=VECTOR('',#1327,10.);
#378=VECTOR('',#1328,10.);
#379=VECTOR('',#1329,10.);
#380=VECTOR('',#1332,10.);
#381=VECTOR('',#1333,10.);
#382=VECTOR('',#1334,10.);
#383=VECTOR('',#1339,10.);
#384=VECTOR('',#1344,10.);
#385=VECTOR('',#1345,10.);
#386=VECTOR('',#1348,10.);
#387=VECTOR('',#1349,10.);
#388=VECTOR('',#1352,10.);
#389=VECTOR('',#1353,10.);
#390=VECTOR('',#1356,10.);
#391=VECTOR('',#1359,10.);
#392=VECTOR('',#1368,10.);
#393=VECTOR('',#1371,10.);
#394=VECTOR('',#1376,10.);
#395=VECTOR('',#1377,10.);
#396=VECTOR('',#1380,10.);
#397=VECTOR('',#1383,10.);
#398=VECTOR('',#1386,10.);
#399=VECTOR('',#1387,10.11748813289);
#400=VECTOR('',#1388,1.41421356237291);
#401=VECTOR('',#1389,9.596921082338);
#402=VECTOR('',#1392,10.);
#403=VECTOR('',#1393,10.);
#404=VECTOR('',#1394,10.);
#405=VECTOR('',#1395,10.);
#406=VECTOR('',#1398,9.596921082338);
#407=VECTOR('',#1399,1.41421356237291);
#408=VECTOR('',#1400,10.11748813289);
#409=VECTOR('',#1403,10.);
#410=VECTOR('',#1404,10.);
#411=VECTOR('',#1405,10.);
#412=VECTOR('',#1408,10.);
#413=VECTOR('',#1409,10.);
#414=VECTOR('',#1410,14.);
#415=VECTOR('',#1411,14.04942357891);
#416=VECTOR('',#1414,10.);
#417=VECTOR('',#1415,10.);
#418=VECTOR('',#1416,14.);
#419=VECTOR('',#1417,10.);
#420=VECTOR('',#1420,3.1);
#421=VECTOR('',#1423,3.09854447587);
#422=VECTOR('',#1430,10.);
#423=VECTOR('',#1431,10.);
#424=VECTOR('',#1432,14.);
#425=VECTOR('',#1433,10.);
#426=VECTOR('',#1434,10.);
#427=VECTOR('',#1437,14.04942357891);
#428=VECTOR('',#1438,14.);
#429=VECTOR('',#1439,10.);
#430=VECTOR('',#1442,10.);
#431=VECTOR('',#1447,2.399999997624);
#432=VECTOR('',#1454,2.399999997624);
#433=VECTOR('',#1461,3.);
#434=VECTOR('',#1462,3.);
#435=VECTOR('',#1465,10.);
#436=VECTOR('',#1468,1.65);
#437=VECTOR('',#1473,1.65);
#438=VECTOR('',#1480,1.65);
#439=VECTOR('',#1489,1.65);
#440=VECTOR('',#1496,2.25);
#441=VECTOR('',#1501,2.25);
#442=VECTOR('',#1506,10.);
#443=VECTOR('',#1509,11.);
#444=VECTOR('',#1512,10.);
#445=VECTOR('',#1513,3.09854447587);
#446=VECTOR('',#1516,10.);
#447=VECTOR('',#1519,10.);
#448=VECTOR('',#1522,10.);
#449=VECTOR('',#1525,10.);
#450=VECTOR('',#1528,3.1);
#451=VECTOR('',#1531,10.);
#452=VECTOR('',#1538,0.95);
#453=VECTOR('',#1543,0.95);
#454=VECTOR('',#1548,0.95);
#455=VECTOR('',#1561,0.95);
#456=VECTOR('',#1566,34.39854447587);
#457=VECTOR('',#1571,23.8593114804105);
#458=VECTOR('',#1574,23.8593114804105);
#459=VERTEX_POINT('',#1579);
#460=VERTEX_POINT('',#1580);
#461=VERTEX_POINT('',#1582);
#462=VERTEX_POINT('',#1584);
#463=VERTEX_POINT('',#1588);
#464=VERTEX_POINT('',#1590);
#465=VERTEX_POINT('',#1594);
#466=VERTEX_POINT('',#1596);
#467=VERTEX_POINT('',#1603);
#468=VERTEX_POINT('',#1604);
#469=VERTEX_POINT('',#1606);
#470=VERTEX_POINT('',#1608);
#471=VERTEX_POINT('',#1612);
#472=VERTEX_POINT('',#1614);
#473=VERTEX_POINT('',#1616);
#474=VERTEX_POINT('',#1618);
#475=VERTEX_POINT('',#1622);
#476=VERTEX_POINT('',#1626);
#477=VERTEX_POINT('',#1627);
#478=VERTEX_POINT('',#1629);
#479=VERTEX_POINT('',#1631);
#480=VERTEX_POINT('',#1635);
#481=VERTEX_POINT('',#1637);
#482=VERTEX_POINT('',#1641);
#483=VERTEX_POINT('',#1643);
#484=VERTEX_POINT('',#1647);
#485=VERTEX_POINT('',#1649);
#486=VERTEX_POINT('',#1653);
#487=VERTEX_POINT('',#1655);
#488=VERTEX_POINT('',#1659);
#489=VERTEX_POINT('',#1661);
#490=VERTEX_POINT('',#1665);
#491=VERTEX_POINT('',#1667);
#492=VERTEX_POINT('',#1671);
#493=VERTEX_POINT('',#1673);
#494=VERTEX_POINT('',#1680);
#495=VERTEX_POINT('',#1684);
#496=VERTEX_POINT('',#1685);
#497=VERTEX_POINT('',#1687);
#498=VERTEX_POINT('',#1689);
#499=VERTEX_POINT('',#1691);
#500=VERTEX_POINT('',#1693);
#501=VERTEX_POINT('',#1696);
#502=VERTEX_POINT('',#1698);
#503=VERTEX_POINT('',#1700);
#504=VERTEX_POINT('',#1702);
#505=VERTEX_POINT('',#1709);
#506=VERTEX_POINT('',#1710);
#507=VERTEX_POINT('',#1712);
#508=VERTEX_POINT('',#1714);
#509=VERTEX_POINT('',#1716);
#510=VERTEX_POINT('',#1718);
#511=VERTEX_POINT('',#1722);
#512=VERTEX_POINT('',#1723);
#513=VERTEX_POINT('',#1725);
#514=VERTEX_POINT('',#1727);
#515=VERTEX_POINT('',#1732);
#516=VERTEX_POINT('',#1734);
#517=VERTEX_POINT('',#1738);
#518=VERTEX_POINT('',#1740);
#519=VERTEX_POINT('',#1744);
#520=VERTEX_POINT('',#1745);
#521=VERTEX_POINT('',#1750);
#522=VERTEX_POINT('',#1751);
#523=VERTEX_POINT('',#1753);
#524=VERTEX_POINT('',#1755);
#525=VERTEX_POINT('',#1757);
#526=VERTEX_POINT('',#1759);
#527=VERTEX_POINT('',#1763);
#528=VERTEX_POINT('',#1767);
#529=VERTEX_POINT('',#1769);
#530=VERTEX_POINT('',#1772);
#531=VERTEX_POINT('',#1774);
#532=VERTEX_POINT('',#1777);
#533=VERTEX_POINT('',#1778);
#534=VERTEX_POINT('',#1780);
#535=VERTEX_POINT('',#1784);
#536=VERTEX_POINT('',#1786);
#537=VERTEX_POINT('',#1788);
#538=VERTEX_POINT('',#1790);
#539=VERTEX_POINT('',#1796);
#540=VERTEX_POINT('',#1797);
#541=VERTEX_POINT('',#1802);
#542=VERTEX_POINT('',#1803);
#543=VERTEX_POINT('',#1808);
#544=VERTEX_POINT('',#1809);
#545=VERTEX_POINT('',#1816);
#546=VERTEX_POINT('',#1820);
#547=VERTEX_POINT('',#1824);
#548=VERTEX_POINT('',#1826);
#549=VERTEX_POINT('',#1830);
#550=VERTEX_POINT('',#1831);
#551=VERTEX_POINT('',#1834);
#552=VERTEX_POINT('',#1838);
#553=VERTEX_POINT('',#1842);
#554=VERTEX_POINT('',#1846);
#555=VERTEX_POINT('',#1847);
#556=VERTEX_POINT('',#1849);
#557=VERTEX_POINT('',#1851);
#558=VERTEX_POINT('',#1871);
#559=VERTEX_POINT('',#1875);
#560=VERTEX_POINT('',#1879);
#561=VERTEX_POINT('',#1884);
#562=VERTEX_POINT('',#1891);
#563=VERTEX_POINT('',#1893);
#564=EDGE_CURVE('',#459,#460,#229,.T.);
#565=EDGE_CURVE('',#459,#461,#230,.T.);
#566=EDGE_CURVE('',#461,#462,#231,.T.);
#567=EDGE_CURVE('',#460,#462,#232,.T.);
#568=EDGE_CURVE('',#463,#459,#233,.T.);
#569=EDGE_CURVE('',#463,#464,#234,.T.);
#570=EDGE_CURVE('',#464,#461,#235,.T.);
#571=EDGE_CURVE('',#465,#463,#236,.T.);
#572=EDGE_CURVE('',#465,#466,#237,.T.);
#573=EDGE_CURVE('',#466,#464,#238,.T.);
#574=EDGE_CURVE('',#460,#465,#239,.T.);
#575=EDGE_CURVE('',#462,#466,#240,.T.);
#576=EDGE_CURVE('',#467,#468,#241,.T.);
#577=EDGE_CURVE('',#469,#467,#242,.T.);
#578=EDGE_CURVE('',#470,#469,#243,.T.);
#579=EDGE_CURVE('',#468,#470,#244,.T.);
#580=EDGE_CURVE('',#471,#467,#245,.T.);
#581=EDGE_CURVE('',#472,#471,#246,.T.);
#582=EDGE_CURVE('',#472,#473,#247,.T.);
#583=EDGE_CURVE('',#473,#474,#248,.T.);
#584=EDGE_CURVE('',#474,#469,#249,.T.);
#585=EDGE_CURVE('',#475,#468,#250,.T.);
#586=EDGE_CURVE('',#471,#475,#251,.T.);
#587=EDGE_CURVE('',#476,#477,#23,.T.);
#588=EDGE_CURVE('',#476,#478,#252,.T.);
#589=EDGE_CURVE('',#478,#479,#24,.T.);
#590=EDGE_CURVE('',#477,#479,#253,.T.);
#591=EDGE_CURVE('',#480,#476,#254,.T.);
#592=EDGE_CURVE('',#480,#481,#255,.T.);
#593=EDGE_CURVE('',#481,#478,#256,.T.);
#594=EDGE_CURVE('',#482,#480,#25,.T.);
#595=EDGE_CURVE('',#482,#483,#257,.T.);
#596=EDGE_CURVE('',#483,#481,#26,.T.);
#597=EDGE_CURVE('',#484,#482,#258,.T.);
#598=EDGE_CURVE('',#484,#485,#259,.T.);
#599=EDGE_CURVE('',#485,#483,#260,.T.);
#600=EDGE_CURVE('',#486,#484,#27,.T.);
#601=EDGE_CURVE('',#486,#487,#261,.T.);
#602=EDGE_CURVE('',#487,#485,#28,.T.);
#603=EDGE_CURVE('',#488,#486,#262,.T.);
#604=EDGE_CURVE('',#489,#488,#263,.T.);
#605=EDGE_CURVE('',#489,#487,#264,.T.);
#606=EDGE_CURVE('',#490,#472,#265,.T.);
#607=EDGE_CURVE('',#490,#491,#266,.T.);
#608=EDGE_CURVE('',#491,#473,#267,.T.);
#609=EDGE_CURVE('',#492,#490,#29,.T.);
#610=EDGE_CURVE('',#492,#493,#268,.T.);
#611=EDGE_CURVE('',#493,#491,#30,.T.);
#612=EDGE_CURVE('',#477,#492,#269,.T.);
#613=EDGE_CURVE('',#479,#493,#270,.T.);
#614=EDGE_CURVE('',#494,#489,#271,.T.);
#615=EDGE_CURVE('',#474,#494,#272,.T.);
#616=EDGE_CURVE('',#495,#496,#273,.T.);
#617=EDGE_CURVE('',#495,#497,#274,.T.);
#618=EDGE_CURVE('',#497,#498,#19,.T.);
#619=EDGE_CURVE('',#498,#499,#275,.T.);
#620=EDGE_CURVE('',#499,#500,#20,.T.);
#621=EDGE_CURVE('',#500,#496,#276,.T.);
#622=EDGE_CURVE('',#501,#501,#31,.T.);
#623=EDGE_CURVE('',#502,#502,#32,.T.);
#624=EDGE_CURVE('',#503,#503,#33,.T.);
#625=EDGE_CURVE('',#504,#504,#34,.T.);
#626=EDGE_CURVE('',#475,#488,#277,.T.);
#627=EDGE_CURVE('',#494,#470,#278,.T.);
#628=EDGE_CURVE('',#505,#506,#279,.T.);
#629=EDGE_CURVE('',#507,#505,#280,.T.);
#630=EDGE_CURVE('',#508,#507,#21,.T.);
#631=EDGE_CURVE('',#508,#509,#281,.T.);
#632=EDGE_CURVE('',#510,#509,#22,.T.);
#633=EDGE_CURVE('',#506,#510,#282,.T.);
#634=EDGE_CURVE('',#511,#512,#283,.T.);
#635=EDGE_CURVE('',#511,#513,#284,.T.);
#636=EDGE_CURVE('',#514,#513,#285,.T.);
#637=EDGE_CURVE('',#512,#514,#286,.T.);
#638=EDGE_CURVE('',#506,#511,#287,.T.);
#639=EDGE_CURVE('',#512,#515,#288,.T.);
#640=EDGE_CURVE('',#515,#516,#289,.T.);
#641=EDGE_CURVE('',#505,#516,#290,.T.);
#642=EDGE_CURVE('',#517,#515,#291,.T.);
#643=EDGE_CURVE('',#518,#517,#292,.T.);
#644=EDGE_CURVE('',#518,#516,#293,.T.);
#645=EDGE_CURVE('',#519,#520,#294,.T.);
#646=EDGE_CURVE('',#519,#495,#295,.T.);
#647=EDGE_CURVE('',#520,#496,#296,.T.);
#648=EDGE_CURVE('',#521,#522,#297,.T.);
#649=EDGE_CURVE('',#522,#523,#298,.T.);
#650=EDGE_CURVE('',#523,#524,#299,.T.);
#651=EDGE_CURVE('',#525,#524,#300,.T.);
#652=EDGE_CURVE('',#526,#525,#35,.T.);
#653=EDGE_CURVE('',#520,#526,#301,.T.);
#654=EDGE_CURVE('',#507,#500,#302,.T.);
#655=EDGE_CURVE('',#518,#527,#303,.T.);
#656=EDGE_CURVE('',#527,#521,#304,.T.);
#657=EDGE_CURVE('',#528,#514,#305,.T.);
#658=EDGE_CURVE('',#528,#529,#36,.T.);
#659=EDGE_CURVE('',#517,#529,#306,.T.);
#660=EDGE_CURVE('',#530,#530,#37,.T.);
#661=EDGE_CURVE('',#531,#531,#38,.T.);
#662=EDGE_CURVE('',#532,#533,#307,.T.);
#663=EDGE_CURVE('',#533,#534,#308,.T.);
#664=EDGE_CURVE('',#513,#534,#309,.T.);
#665=EDGE_CURVE('',#497,#510,#310,.T.);
#666=EDGE_CURVE('',#535,#519,#311,.T.);
#667=EDGE_CURVE('',#536,#535,#39,.T.);
#668=EDGE_CURVE('',#537,#536,#312,.T.);
#669=EDGE_CURVE('',#538,#537,#313,.T.);
#670=EDGE_CURVE('',#538,#532,#314,.T.);
#671=EDGE_CURVE('',#535,#526,#315,.T.);
#672=EDGE_CURVE('',#539,#540,#40,.T.);
#673=EDGE_CURVE('',#540,#530,#316,.T.);
#674=EDGE_CURVE('',#540,#539,#41,.T.);
#675=EDGE_CURVE('',#541,#542,#42,.T.);
#676=EDGE_CURVE('',#542,#531,#317,.T.);
#677=EDGE_CURVE('',#542,#541,#43,.T.);
#678=EDGE_CURVE('',#543,#544,#44,.T.);
#679=EDGE_CURVE('',#529,#544,#318,.T.);
#680=EDGE_CURVE('',#528,#543,#319,.T.);
#681=EDGE_CURVE('',#544,#527,#320,.T.);
#682=EDGE_CURVE('',#539,#545,#321,.T.);
#683=EDGE_CURVE('',#545,#545,#45,.T.);
#684=EDGE_CURVE('',#541,#546,#322,.T.);
#685=EDGE_CURVE('',#546,#546,#46,.T.);
#686=EDGE_CURVE('',#547,#547,#47,.T.);
#687=EDGE_CURVE('',#547,#548,#323,.T.);
#688=EDGE_CURVE('',#548,#548,#48,.T.);
#689=EDGE_CURVE('',#549,#550,#49,.T.);
#690=EDGE_CURVE('',#550,#549,#50,.T.);
#691=EDGE_CURVE('',#549,#551,#324,.T.);
#692=EDGE_CURVE('',#551,#551,#51,.T.);
#693=EDGE_CURVE('',#552,#552,#52,.T.);
#694=EDGE_CURVE('',#552,#550,#325,.T.);
#695=EDGE_CURVE('',#553,#553,#53,.T.);
#696=EDGE_CURVE('',#553,#547,#326,.T.);
#697=EDGE_CURVE('',#554,#555,#54,.T.);
#698=EDGE_CURVE('',#555,#556,#327,.T.);
#699=EDGE_CURVE('',#557,#556,#55,.T.);
#700=EDGE_CURVE('',#554,#557,#328,.T.);
#701=EDGE_CURVE('',#523,#554,#329,.T.);
#702=EDGE_CURVE('',#524,#557,#330,.T.);
#703=EDGE_CURVE('',#534,#543,#331,.T.);
#704=EDGE_CURVE('',#521,#533,#332,.T.);
#705=EDGE_CURVE('',#532,#522,#333,.T.);
#706=EDGE_CURVE('',#555,#538,#334,.T.);
#707=EDGE_CURVE('',#556,#537,#335,.T.);
#708=EDGE_CURVE('',#525,#536,#336,.T.);
#709=EDGE_CURVE('',#558,#558,#56,.T.);
#710=EDGE_CURVE('',#558,#503,#337,.T.);
#711=EDGE_CURVE('',#559,#559,#57,.T.);
#712=EDGE_CURVE('',#559,#502,#338,.T.);
#713=EDGE_CURVE('',#560,#560,#58,.T.);
#714=EDGE_CURVE('',#560,#501,#339,.T.);
#715=EDGE_CURVE('',#561,#561,#59,.T.);
#716=EDGE_CURVE('',#561,#504,#340,.T.);
#717=EDGE_CURVE('',#498,#562,#60,.T.);
#718=EDGE_CURVE('',#563,#562,#341,.T.);
#719=EDGE_CURVE('',#563,#499,#61,.T.);
#720=EDGE_CURVE('',#508,#563,#342,.T.);
#721=EDGE_CURVE('',#509,#562,#343,.T.);
#722=ORIENTED_EDGE('',*,*,#564,.F.);
#723=ORIENTED_EDGE('',*,*,#565,.T.);
#724=ORIENTED_EDGE('',*,*,#566,.T.);
#725=ORIENTED_EDGE('',*,*,#567,.F.);
#726=ORIENTED_EDGE('',*,*,#568,.F.);
#727=ORIENTED_EDGE('',*,*,#569,.T.);
#728=ORIENTED_EDGE('',*,*,#570,.T.);
#729=ORIENTED_EDGE('',*,*,#565,.F.);
#730=ORIENTED_EDGE('',*,*,#571,.F.);
#731=ORIENTED_EDGE('',*,*,#572,.T.);
#732=ORIENTED_EDGE('',*,*,#573,.T.);
#733=ORIENTED_EDGE('',*,*,#569,.F.);
#734=ORIENTED_EDGE('',*,*,#574,.F.);
#735=ORIENTED_EDGE('',*,*,#567,.T.);
#736=ORIENTED_EDGE('',*,*,#575,.T.);
#737=ORIENTED_EDGE('',*,*,#572,.F.);
#738=ORIENTED_EDGE('',*,*,#575,.F.);
#739=ORIENTED_EDGE('',*,*,#566,.F.);
#740=ORIENTED_EDGE('',*,*,#570,.F.);
#741=ORIENTED_EDGE('',*,*,#573,.F.);
#742=ORIENTED_EDGE('',*,*,#576,.F.);
#743=ORIENTED_EDGE('',*,*,#577,.F.);
#744=ORIENTED_EDGE('',*,*,#578,.F.);
#745=ORIENTED_EDGE('',*,*,#579,.F.);
#746=ORIENTED_EDGE('',*,*,#577,.T.);
#747=ORIENTED_EDGE('',*,*,#580,.F.);
#748=ORIENTED_EDGE('',*,*,#581,.F.);
#749=ORIENTED_EDGE('',*,*,#582,.T.);
#750=ORIENTED_EDGE('',*,*,#583,.T.);
#751=ORIENTED_EDGE('',*,*,#584,.T.);
#752=ORIENTED_EDGE('',*,*,#576,.T.);
#753=ORIENTED_EDGE('',*,*,#585,.F.);
#754=ORIENTED_EDGE('',*,*,#586,.F.);
#755=ORIENTED_EDGE('',*,*,#580,.T.);
#756=ORIENTED_EDGE('',*,*,#587,.F.);
#757=ORIENTED_EDGE('',*,*,#588,.T.);
#758=ORIENTED_EDGE('',*,*,#589,.T.);
#759=ORIENTED_EDGE('',*,*,#590,.F.);
#760=ORIENTED_EDGE('',*,*,#591,.F.);
#761=ORIENTED_EDGE('',*,*,#592,.T.);
#762=ORIENTED_EDGE('',*,*,#593,.T.);
#763=ORIENTED_EDGE('',*,*,#588,.F.);
#764=ORIENTED_EDGE('',*,*,#594,.F.);
#765=ORIENTED_EDGE('',*,*,#595,.T.);
#766=ORIENTED_EDGE('',*,*,#596,.T.);
#767=ORIENTED_EDGE('',*,*,#592,.F.);
#768=ORIENTED_EDGE('',*,*,#597,.F.);
#769=ORIENTED_EDGE('',*,*,#598,.T.);
#770=ORIENTED_EDGE('',*,*,#599,.T.);
#771=ORIENTED_EDGE('',*,*,#595,.F.);
#772=ORIENTED_EDGE('',*,*,#600,.F.);
#773=ORIENTED_EDGE('',*,*,#601,.T.);
#774=ORIENTED_EDGE('',*,*,#602,.T.);
#775=ORIENTED_EDGE('',*,*,#598,.F.);
#776=ORIENTED_EDGE('',*,*,#603,.F.);
#777=ORIENTED_EDGE('',*,*,#604,.F.);
#778=ORIENTED_EDGE('',*,*,#605,.T.);
#779=ORIENTED_EDGE('',*,*,#601,.F.);
#780=ORIENTED_EDGE('',*,*,#606,.F.);
#781=ORIENTED_EDGE('',*,*,#607,.T.);
#782=ORIENTED_EDGE('',*,*,#608,.T.);
#783=ORIENTED_EDGE('',*,*,#582,.F.);
#784=ORIENTED_EDGE('',*,*,#609,.F.);
#785=ORIENTED_EDGE('',*,*,#610,.T.);
#786=ORIENTED_EDGE('',*,*,#611,.T.);
#787=ORIENTED_EDGE('',*,*,#607,.F.);
#788=ORIENTED_EDGE('',*,*,#612,.F.);
#789=ORIENTED_EDGE('',*,*,#590,.T.);
#790=ORIENTED_EDGE('',*,*,#613,.T.);
#791=ORIENTED_EDGE('',*,*,#610,.F.);
#792=ORIENTED_EDGE('',*,*,#613,.F.);
#793=ORIENTED_EDGE('',*,*,#589,.F.);
#794=ORIENTED_EDGE('',*,*,#593,.F.);
#795=ORIENTED_EDGE('',*,*,#596,.F.);
#796=ORIENTED_EDGE('',*,*,#599,.F.);
#797=ORIENTED_EDGE('',*,*,#602,.F.);
#798=ORIENTED_EDGE('',*,*,#605,.F.);
#799=ORIENTED_EDGE('',*,*,#614,.F.);
#800=ORIENTED_EDGE('',*,*,#615,.F.);
#801=ORIENTED_EDGE('',*,*,#583,.F.);
#802=ORIENTED_EDGE('',*,*,#608,.F.);
#803=ORIENTED_EDGE('',*,*,#611,.F.);
#804=ORIENTED_EDGE('',*,*,#616,.F.);
#805=ORIENTED_EDGE('',*,*,#617,.T.);
#806=ORIENTED_EDGE('',*,*,#618,.T.);
#807=ORIENTED_EDGE('',*,*,#619,.T.);
#808=ORIENTED_EDGE('',*,*,#620,.T.);
#809=ORIENTED_EDGE('',*,*,#621,.T.);
#810=ORIENTED_EDGE('',*,*,#622,.F.);
#811=ORIENTED_EDGE('',*,*,#623,.F.);
#812=ORIENTED_EDGE('',*,*,#624,.F.);
#813=ORIENTED_EDGE('',*,*,#625,.F.);
#814=ORIENTED_EDGE('',*,*,#603,.T.);
#815=ORIENTED_EDGE('',*,*,#600,.T.);
#816=ORIENTED_EDGE('',*,*,#597,.T.);
#817=ORIENTED_EDGE('',*,*,#594,.T.);
#818=ORIENTED_EDGE('',*,*,#591,.T.);
#819=ORIENTED_EDGE('',*,*,#587,.T.);
#820=ORIENTED_EDGE('',*,*,#612,.T.);
#821=ORIENTED_EDGE('',*,*,#609,.T.);
#822=ORIENTED_EDGE('',*,*,#606,.T.);
#823=ORIENTED_EDGE('',*,*,#581,.T.);
#824=ORIENTED_EDGE('',*,*,#586,.T.);
#825=ORIENTED_EDGE('',*,*,#626,.T.);
#826=ORIENTED_EDGE('',*,*,#578,.T.);
#827=ORIENTED_EDGE('',*,*,#584,.F.);
#828=ORIENTED_EDGE('',*,*,#615,.T.);
#829=ORIENTED_EDGE('',*,*,#627,.T.);
#830=ORIENTED_EDGE('',*,*,#579,.T.);
#831=ORIENTED_EDGE('',*,*,#627,.F.);
#832=ORIENTED_EDGE('',*,*,#614,.T.);
#833=ORIENTED_EDGE('',*,*,#604,.T.);
#834=ORIENTED_EDGE('',*,*,#626,.F.);
#835=ORIENTED_EDGE('',*,*,#585,.T.);
#836=ORIENTED_EDGE('',*,*,#628,.F.);
#837=ORIENTED_EDGE('',*,*,#629,.F.);
#838=ORIENTED_EDGE('',*,*,#630,.F.);
#839=ORIENTED_EDGE('',*,*,#631,.T.);
#840=ORIENTED_EDGE('',*,*,#632,.F.);
#841=ORIENTED_EDGE('',*,*,#633,.F.);
#842=ORIENTED_EDGE('',*,*,#564,.T.);
#843=ORIENTED_EDGE('',*,*,#574,.T.);
#844=ORIENTED_EDGE('',*,*,#571,.T.);
#845=ORIENTED_EDGE('',*,*,#568,.T.);
#846=ORIENTED_EDGE('',*,*,#634,.F.);
#847=ORIENTED_EDGE('',*,*,#635,.T.);
#848=ORIENTED_EDGE('',*,*,#636,.F.);
#849=ORIENTED_EDGE('',*,*,#637,.F.);
#850=ORIENTED_EDGE('',*,*,#638,.T.);
#851=ORIENTED_EDGE('',*,*,#634,.T.);
#852=ORIENTED_EDGE('',*,*,#639,.T.);
#853=ORIENTED_EDGE('',*,*,#640,.T.);
#854=ORIENTED_EDGE('',*,*,#641,.F.);
#855=ORIENTED_EDGE('',*,*,#628,.T.);
#856=ORIENTED_EDGE('',*,*,#640,.F.);
#857=ORIENTED_EDGE('',*,*,#642,.F.);
#858=ORIENTED_EDGE('',*,*,#643,.F.);
#859=ORIENTED_EDGE('',*,*,#644,.T.);
#860=ORIENTED_EDGE('',*,*,#645,.F.);
#861=ORIENTED_EDGE('',*,*,#646,.T.);
#862=ORIENTED_EDGE('',*,*,#616,.T.);
#863=ORIENTED_EDGE('',*,*,#647,.F.);
#864=ORIENTED_EDGE('',*,*,#648,.T.);
#865=ORIENTED_EDGE('',*,*,#649,.T.);
#866=ORIENTED_EDGE('',*,*,#650,.T.);
#867=ORIENTED_EDGE('',*,*,#651,.F.);
#868=ORIENTED_EDGE('',*,*,#652,.F.);
#869=ORIENTED_EDGE('',*,*,#653,.F.);
#870=ORIENTED_EDGE('',*,*,#647,.T.);
#871=ORIENTED_EDGE('',*,*,#621,.F.);
#872=ORIENTED_EDGE('',*,*,#654,.F.);
#873=ORIENTED_EDGE('',*,*,#629,.T.);
#874=ORIENTED_EDGE('',*,*,#641,.T.);
#875=ORIENTED_EDGE('',*,*,#644,.F.);
#876=ORIENTED_EDGE('',*,*,#655,.T.);
#877=ORIENTED_EDGE('',*,*,#656,.T.);
#878=ORIENTED_EDGE('',*,*,#642,.T.);
#879=ORIENTED_EDGE('',*,*,#639,.F.);
#880=ORIENTED_EDGE('',*,*,#637,.T.);
#881=ORIENTED_EDGE('',*,*,#657,.F.);
#882=ORIENTED_EDGE('',*,*,#658,.T.);
#883=ORIENTED_EDGE('',*,*,#659,.F.);
#884=ORIENTED_EDGE('',*,*,#660,.T.);
#885=ORIENTED_EDGE('',*,*,#661,.T.);
#886=ORIENTED_EDGE('',*,*,#662,.T.);
#887=ORIENTED_EDGE('',*,*,#663,.T.);
#888=ORIENTED_EDGE('',*,*,#664,.F.);
#889=ORIENTED_EDGE('',*,*,#635,.F.);
#890=ORIENTED_EDGE('',*,*,#638,.F.);
#891=ORIENTED_EDGE('',*,*,#633,.T.);
#892=ORIENTED_EDGE('',*,*,#665,.F.);
#893=ORIENTED_EDGE('',*,*,#617,.F.);
#894=ORIENTED_EDGE('',*,*,#646,.F.);
#895=ORIENTED_EDGE('',*,*,#666,.F.);
#896=ORIENTED_EDGE('',*,*,#667,.F.);
#897=ORIENTED_EDGE('',*,*,#668,.F.);
#898=ORIENTED_EDGE('',*,*,#669,.F.);
#899=ORIENTED_EDGE('',*,*,#670,.T.);
#900=ORIENTED_EDGE('',*,*,#645,.T.);
#901=ORIENTED_EDGE('',*,*,#653,.T.);
#902=ORIENTED_EDGE('',*,*,#671,.F.);
#903=ORIENTED_EDGE('',*,*,#666,.T.);
#904=ORIENTED_EDGE('',*,*,#672,.T.);
#905=ORIENTED_EDGE('',*,*,#673,.T.);
#906=ORIENTED_EDGE('',*,*,#660,.F.);
#907=ORIENTED_EDGE('',*,*,#673,.F.);
#908=ORIENTED_EDGE('',*,*,#674,.T.);
#909=ORIENTED_EDGE('',*,*,#675,.T.);
#910=ORIENTED_EDGE('',*,*,#676,.T.);
#911=ORIENTED_EDGE('',*,*,#661,.F.);
#912=ORIENTED_EDGE('',*,*,#676,.F.);
#913=ORIENTED_EDGE('',*,*,#677,.T.);
#914=ORIENTED_EDGE('',*,*,#678,.T.);
#915=ORIENTED_EDGE('',*,*,#679,.F.);
#916=ORIENTED_EDGE('',*,*,#658,.F.);
#917=ORIENTED_EDGE('',*,*,#680,.T.);
#918=ORIENTED_EDGE('',*,*,#681,.T.);
#919=ORIENTED_EDGE('',*,*,#655,.F.);
#920=ORIENTED_EDGE('',*,*,#643,.T.);
#921=ORIENTED_EDGE('',*,*,#659,.T.);
#922=ORIENTED_EDGE('',*,*,#679,.T.);
#923=ORIENTED_EDGE('',*,*,#672,.F.);
#924=ORIENTED_EDGE('',*,*,#682,.T.);
#925=ORIENTED_EDGE('',*,*,#683,.T.);
#926=ORIENTED_EDGE('',*,*,#682,.F.);
#927=ORIENTED_EDGE('',*,*,#674,.F.);
#928=ORIENTED_EDGE('',*,*,#675,.F.);
#929=ORIENTED_EDGE('',*,*,#684,.T.);
#930=ORIENTED_EDGE('',*,*,#685,.T.);
#931=ORIENTED_EDGE('',*,*,#684,.F.);
#932=ORIENTED_EDGE('',*,*,#677,.F.);
#933=ORIENTED_EDGE('',*,*,#686,.T.);
#934=ORIENTED_EDGE('',*,*,#687,.T.);
#935=ORIENTED_EDGE('',*,*,#688,.T.);
#936=ORIENTED_EDGE('',*,*,#687,.F.);
#937=ORIENTED_EDGE('',*,*,#689,.T.);
#938=ORIENTED_EDGE('',*,*,#690,.T.);
#939=ORIENTED_EDGE('',*,*,#691,.T.);
#940=ORIENTED_EDGE('',*,*,#692,.T.);
#941=ORIENTED_EDGE('',*,*,#691,.F.);
#942=ORIENTED_EDGE('',*,*,#693,.F.);
#943=ORIENTED_EDGE('',*,*,#694,.T.);
#944=ORIENTED_EDGE('',*,*,#689,.F.);
#945=ORIENTED_EDGE('',*,*,#690,.F.);
#946=ORIENTED_EDGE('',*,*,#694,.F.);
#947=ORIENTED_EDGE('',*,*,#695,.F.);
#948=ORIENTED_EDGE('',*,*,#696,.T.);
#949=ORIENTED_EDGE('',*,*,#686,.F.);
#950=ORIENTED_EDGE('',*,*,#696,.F.);
#951=ORIENTED_EDGE('',*,*,#697,.T.);
#952=ORIENTED_EDGE('',*,*,#698,.T.);
#953=ORIENTED_EDGE('',*,*,#699,.F.);
#954=ORIENTED_EDGE('',*,*,#700,.F.);
#955=ORIENTED_EDGE('',*,*,#701,.T.);
#956=ORIENTED_EDGE('',*,*,#700,.T.);
#957=ORIENTED_EDGE('',*,*,#702,.F.);
#958=ORIENTED_EDGE('',*,*,#650,.F.);
#959=ORIENTED_EDGE('',*,*,#703,.T.);
#960=ORIENTED_EDGE('',*,*,#680,.F.);
#961=ORIENTED_EDGE('',*,*,#657,.T.);
#962=ORIENTED_EDGE('',*,*,#636,.T.);
#963=ORIENTED_EDGE('',*,*,#664,.T.);
#964=ORIENTED_EDGE('',*,*,#704,.F.);
#965=ORIENTED_EDGE('',*,*,#656,.F.);
#966=ORIENTED_EDGE('',*,*,#681,.F.);
#967=ORIENTED_EDGE('',*,*,#678,.F.);
#968=ORIENTED_EDGE('',*,*,#703,.F.);
#969=ORIENTED_EDGE('',*,*,#663,.F.);
#970=ORIENTED_EDGE('',*,*,#685,.F.);
#971=ORIENTED_EDGE('',*,*,#683,.F.);
#972=ORIENTED_EDGE('',*,*,#662,.F.);
#973=ORIENTED_EDGE('',*,*,#705,.T.);
#974=ORIENTED_EDGE('',*,*,#648,.F.);
#975=ORIENTED_EDGE('',*,*,#704,.T.);
#976=ORIENTED_EDGE('',*,*,#697,.F.);
#977=ORIENTED_EDGE('',*,*,#701,.F.);
#978=ORIENTED_EDGE('',*,*,#649,.F.);
#979=ORIENTED_EDGE('',*,*,#705,.F.);
#980=ORIENTED_EDGE('',*,*,#670,.F.);
#981=ORIENTED_EDGE('',*,*,#706,.F.);
#982=ORIENTED_EDGE('',*,*,#692,.F.);
#983=ORIENTED_EDGE('',*,*,#688,.F.);
#984=ORIENTED_EDGE('',*,*,#706,.T.);
#985=ORIENTED_EDGE('',*,*,#669,.T.);
#986=ORIENTED_EDGE('',*,*,#707,.F.);
#987=ORIENTED_EDGE('',*,*,#698,.F.);
#988=ORIENTED_EDGE('',*,*,#708,.F.);
#989=ORIENTED_EDGE('',*,*,#651,.T.);
#990=ORIENTED_EDGE('',*,*,#702,.T.);
#991=ORIENTED_EDGE('',*,*,#699,.T.);
#992=ORIENTED_EDGE('',*,*,#707,.T.);
#993=ORIENTED_EDGE('',*,*,#668,.T.);
#994=ORIENTED_EDGE('',*,*,#695,.T.);
#995=ORIENTED_EDGE('',*,*,#693,.T.);
#996=ORIENTED_EDGE('',*,*,#671,.T.);
#997=ORIENTED_EDGE('',*,*,#652,.T.);
#998=ORIENTED_EDGE('',*,*,#708,.T.);
#999=ORIENTED_EDGE('',*,*,#667,.T.);
#1000=ORIENTED_EDGE('',*,*,#709,.F.);
#1001=ORIENTED_EDGE('',*,*,#710,.T.);
#1002=ORIENTED_EDGE('',*,*,#624,.T.);
#1003=ORIENTED_EDGE('',*,*,#710,.F.);
#1004=ORIENTED_EDGE('',*,*,#711,.F.);
#1005=ORIENTED_EDGE('',*,*,#712,.T.);
#1006=ORIENTED_EDGE('',*,*,#623,.T.);
#1007=ORIENTED_EDGE('',*,*,#712,.F.);
#1008=ORIENTED_EDGE('',*,*,#713,.F.);
#1009=ORIENTED_EDGE('',*,*,#714,.T.);
#1010=ORIENTED_EDGE('',*,*,#622,.T.);
#1011=ORIENTED_EDGE('',*,*,#714,.F.);
#1012=ORIENTED_EDGE('',*,*,#709,.T.);
#1013=ORIENTED_EDGE('',*,*,#715,.T.);
#1014=ORIENTED_EDGE('',*,*,#711,.T.);
#1015=ORIENTED_EDGE('',*,*,#713,.T.);
#1016=ORIENTED_EDGE('',*,*,#715,.F.);
#1017=ORIENTED_EDGE('',*,*,#716,.T.);
#1018=ORIENTED_EDGE('',*,*,#625,.T.);
#1019=ORIENTED_EDGE('',*,*,#716,.F.);
#1020=ORIENTED_EDGE('',*,*,#619,.F.);
#1021=ORIENTED_EDGE('',*,*,#717,.T.);
#1022=ORIENTED_EDGE('',*,*,#718,.F.);
#1023=ORIENTED_EDGE('',*,*,#719,.T.);
#1024=ORIENTED_EDGE('',*,*,#630,.T.);
#1025=ORIENTED_EDGE('',*,*,#654,.T.);
#1026=ORIENTED_EDGE('',*,*,#620,.F.);
#1027=ORIENTED_EDGE('',*,*,#719,.F.);
#1028=ORIENTED_EDGE('',*,*,#720,.F.);
#1029=ORIENTED_EDGE('',*,*,#631,.F.);
#1030=ORIENTED_EDGE('',*,*,#720,.T.);
#1031=ORIENTED_EDGE('',*,*,#718,.T.);
#1032=ORIENTED_EDGE('',*,*,#721,.F.);
#1033=ORIENTED_EDGE('',*,*,#632,.T.);
#1034=ORIENTED_EDGE('',*,*,#721,.T.);
#1035=ORIENTED_EDGE('',*,*,#717,.F.);
#1036=ORIENTED_EDGE('',*,*,#618,.F.);
#1037=ORIENTED_EDGE('',*,*,#665,.T.);
#1038=PLANE('',#1151);
#1039=PLANE('',#1152);
#1040=PLANE('',#1153);
#1041=PLANE('',#1154);
#1042=PLANE('',#1155);
#1043=PLANE('',#1156);
#1044=PLANE('',#1157);
#1045=PLANE('',#1161);
#1046=PLANE('',#1165);
#1047=PLANE('',#1169);
#1048=PLANE('',#1170);
#1049=PLANE('',#1174);
#1050=PLANE('',#1175);
#1051=PLANE('',#1176);
#1052=PLANE('',#1183);
#1053=PLANE('',#1184);
#1054=PLANE('',#1185);
#1055=PLANE('',#1188);
#1056=PLANE('',#1189);
#1057=PLANE('',#1190);
#1058=PLANE('',#1191);
#1059=PLANE('',#1192);
#1060=PLANE('',#1194);
#1061=PLANE('',#1198);
#1062=PLANE('',#1200);
#1063=PLANE('',#1209);
#1064=PLANE('',#1228);
#1065=PLANE('',#1229);
#1066=PLANE('',#1230);
#1067=PLANE('',#1231);
#1068=PLANE('',#1232);
#1069=PLANE('',#1233);
#1070=PLANE('',#1234);
#1071=PLANE('',#1242);
#1072=PLANE('',#1243);
#1073=PLANE('',#1245);
#1074=PLANE('',#1246);
#1075=PLANE('',#1248);
#1076=PLANE('',#1252);
#1077=ADVANCED_FACE('',(#94),#1038,.F.);
#1078=ADVANCED_FACE('',(#95),#1039,.F.);
#1079=ADVANCED_FACE('',(#96),#1040,.F.);
#1080=ADVANCED_FACE('',(#97),#1041,.F.);
#1081=ADVANCED_FACE('',(#98,#79),#1042,.F.);
#1082=ADVANCED_FACE('',(#99),#1043,.F.);
#1083=ADVANCED_FACE('',(#100),#1044,.F.);
#1084=ADVANCED_FACE('',(#101),#62,.T.);
#1085=ADVANCED_FACE('',(#102),#1045,.F.);
#1086=ADVANCED_FACE('',(#103),#63,.T.);
#1087=ADVANCED_FACE('',(#104),#1046,.F.);
#1088=ADVANCED_FACE('',(#105),#64,.T.);
#1089=ADVANCED_FACE('',(#106),#1047,.F.);
#1090=ADVANCED_FACE('',(#107),#1048,.F.);
#1091=ADVANCED_FACE('',(#108),#65,.T.);
#1092=ADVANCED_FACE('',(#109),#1049,.F.);
#1093=ADVANCED_FACE('',(#110),#1050,.T.);
#1094=ADVANCED_FACE('',(#111,#80,#81,#82,#83,#84),#1051,.T.);
#1095=ADVANCED_FACE('',(#112),#1052,.F.);
#1096=ADVANCED_FACE('',(#113),#1053,.F.);
#1097=ADVANCED_FACE('',(#114,#85),#1054,.T.);
#1098=ADVANCED_FACE('',(#115),#1055,.T.);
#1099=ADVANCED_FACE('',(#116),#1056,.T.);
#1100=ADVANCED_FACE('',(#117),#1057,.T.);
#1101=ADVANCED_FACE('',(#118),#1058,.T.);
#1102=ADVANCED_FACE('',(#119),#1059,.T.);
#1103=ADVANCED_FACE('',(#120,#86,#87),#1060,.T.);
#1104=ADVANCED_FACE('',(#121),#1061,.F.);
#1105=ADVANCED_FACE('',(#122),#1062,.T.);
#1106=ADVANCED_FACE('',(#123),#15,.F.);
#1107=ADVANCED_FACE('',(#124),#16,.F.);
#1108=ADVANCED_FACE('',(#125),#66,.F.);
#1109=ADVANCED_FACE('',(#126),#1063,.F.);
#1110=ADVANCED_FACE('',(#127),#67,.F.);
#1111=ADVANCED_FACE('',(#128),#68,.F.);
#1112=ADVANCED_FACE('',(#129),#69,.F.);
#1113=ADVANCED_FACE('',(#130),#70,.F.);
#1114=ADVANCED_FACE('',(#131),#17,.F.);
#1115=ADVANCED_FACE('',(#132),#18,.F.);
#1116=ADVANCED_FACE('',(#133),#71,.F.);
#1117=ADVANCED_FACE('',(#134),#1064,.F.);
#1118=ADVANCED_FACE('',(#135),#1065,.F.);
#1119=ADVANCED_FACE('',(#136,#88,#89),#1066,.T.);
#1120=ADVANCED_FACE('',(#137),#1067,.F.);
#1121=ADVANCED_FACE('',(#138,#90,#91),#1068,.F.);
#1122=ADVANCED_FACE('',(#139),#1069,.F.);
#1123=ADVANCED_FACE('',(#140,#92,#93),#1070,.T.);
#1124=ADVANCED_FACE('',(#141),#72,.T.);
#1125=ADVANCED_FACE('',(#142),#73,.F.);
#1126=ADVANCED_FACE('',(#143),#74,.F.);
#1127=ADVANCED_FACE('',(#144),#75,.F.);
#1128=ADVANCED_FACE('',(#145),#1071,.T.);
#1129=ADVANCED_FACE('',(#146),#1072,.T.);
#1130=ADVANCED_FACE('',(#147),#1073,.T.);
#1131=ADVANCED_FACE('',(#148),#1074,.T.);
#1132=ADVANCED_FACE('',(#149),#76,.F.);
#1133=ADVANCED_FACE('',(#150),#1075,.F.);
#1134=ADVANCED_FACE('',(#151),#77,.T.);
#1135=ADVANCED_FACE('',(#152),#1076,.T.);
#1136=ADVANCED_FACE('',(#153),#78,.T.);
#1137=CLOSED_SHELL('',(#1077,#1078,#1079,#1080,#1081,#1082,#1083,#1084,
#1085,#1086,#1087,#1088,#1089,#1090,#1091,#1092,#1093,#1094,#1095,#1096,
#1097,#1098,#1099,#1100,#1101,#1102,#1103,#1104,#1105,#1106,#1107,#1108,
#1109,#1110,#1111,#1112,#1113,#1114,#1115,#1116,#1117,#1118,#1119,#1120,
#1121,#1122,#1123,#1124,#1125,#1126,#1127,#1128,#1129,#1130,#1131,#1132,
#1133,#1134,#1135,#1136));
#1138=DERIVED_UNIT_ELEMENT(#1140,1.);
#1139=DERIVED_UNIT_ELEMENT(#1906,-3.);
#1140=(
MASS_UNIT()
NAMED_UNIT(*)
SI_UNIT(.KILO.,.GRAM.)
);
#1141=DERIVED_UNIT((#1138,#1139));
#1142=MEASURE_REPRESENTATION_ITEM('density measure',
POSITIVE_RATIO_MEASURE(7850.),#1141);
#1143=PROPERTY_DEFINITION_REPRESENTATION(#1148,#1145);
#1144=PROPERTY_DEFINITION_REPRESENTATION(#1149,#1146);
#1145=REPRESENTATION('material name',(#1147),#1903);
#1146=REPRESENTATION('density',(#1142),#1903);
#1147=DESCRIPTIVE_REPRESENTATION_ITEM('\X2\94A2\X0\','\X2\94A2\X0\');
#1148=PROPERTY_DEFINITION('material property','material name',#1913);
#1149=PROPERTY_DEFINITION('material property','density of part',#1913);
#1150=AXIS2_PLACEMENT_3D('',#1577,#1254,#1255);
#1151=AXIS2_PLACEMENT_3D('',#1578,#1256,#1257);
#1152=AXIS2_PLACEMENT_3D('',#1587,#1262,#1263);
#1153=AXIS2_PLACEMENT_3D('',#1593,#1267,#1268);
#1154=AXIS2_PLACEMENT_3D('',#1599,#1272,#1273);
#1155=AXIS2_PLACEMENT_3D('',#1602,#1276,#1277);
#1156=AXIS2_PLACEMENT_3D('',#1611,#1282,#1283);
#1157=AXIS2_PLACEMENT_3D('',#1621,#1289,#1290);
#1158=AXIS2_PLACEMENT_3D('',#1625,#1293,#1294);
#1159=AXIS2_PLACEMENT_3D('',#1628,#1295,#1296);
#1160=AXIS2_PLACEMENT_3D('',#1632,#1298,#1299);
#1161=AXIS2_PLACEMENT_3D('',#1634,#1301,#1302);
#1162=AXIS2_PLACEMENT_3D('',#1640,#1306,#1307);
#1163=AXIS2_PLACEMENT_3D('',#1642,#1308,#1309);
#1164=AXIS2_PLACEMENT_3D('',#1645,#1311,#1312);
#1165=AXIS2_PLACEMENT_3D('',#1646,#1313,#1314);
#1166=AXIS2_PLACEMENT_3D('',#1652,#1318,#1319);
#1167=AXIS2_PLACEMENT_3D('',#1654,#1320,#1321);
#1168=AXIS2_PLACEMENT_3D('',#1657,#1323,#1324);
#1169=AXIS2_PLACEMENT_3D('',#1658,#1325,#1326);
#1170=AXIS2_PLACEMENT_3D('',#1664,#1330,#1331);
#1171=AXIS2_PLACEMENT_3D('',#1670,#1335,#1336);
#1172=AXIS2_PLACEMENT_3D('',#1672,#1337,#1338);
#1173=AXIS2_PLACEMENT_3D('',#1675,#1340,#1341);
#1174=AXIS2_PLACEMENT_3D('',#1676,#1342,#1343);
#1175=AXIS2_PLACEMENT_3D('',#1679,#1346,#1347);
#1176=AXIS2_PLACEMENT_3D('',#1683,#1350,#1351);
#1177=AXIS2_PLACEMENT_3D('',#1690,#1354,#1355);
#1178=AXIS2_PLACEMENT_3D('',#1694,#1357,#1358);
#1179=AXIS2_PLACEMENT_3D('',#1697,#1360,#1361);
#1180=AXIS2_PLACEMENT_3D('',#1699,#1362,#1363);
#1181=AXIS2_PLACEMENT_3D('',#1701,#1364,#1365);
#1182=AXIS2_PLACEMENT_3D('',#1703,#1366,#1367);
#1183=AXIS2_PLACEMENT_3D('',#1705,#1369,#1370);
#1184=AXIS2_PLACEMENT_3D('',#1707,#1372,#1373);
#1185=AXIS2_PLACEMENT_3D('',#1708,#1374,#1375);
#1186=AXIS2_PLACEMENT_3D('',#1715,#1378,#1379);
#1187=AXIS2_PLACEMENT_3D('',#1719,#1381,#1382);
#1188=AXIS2_PLACEMENT_3D('',#1721,#1384,#1385);
#1189=AXIS2_PLACEMENT_3D('',#1730,#1390,#1391);
#1190=AXIS2_PLACEMENT_3D('',#1737,#1396,#1397);
#1191=AXIS2_PLACEMENT_3D('',#1743,#1401,#1402);
#1192=AXIS2_PLACEMENT_3D('',#1749,#1406,#1407);
#1193=AXIS2_PLACEMENT_3D('',#1760,#1412,#1413);
#1194=AXIS2_PLACEMENT_3D('',#1766,#1418,#1419);
#1195=AXIS2_PLACEMENT_3D('',#1770,#1421,#1422);
#1196=AXIS2_PLACEMENT_3D('',#1773,#1424,#1425);
#1197=AXIS2_PLACEMENT_3D('',#1775,#1426,#1427);
#1198=AXIS2_PLACEMENT_3D('',#1776,#1428,#1429);
#1199=AXIS2_PLACEMENT_3D('',#1787,#1435,#1436);
#1200=AXIS2_PLACEMENT_3D('',#1793,#1440,#1441);
#1201=AXIS2_PLACEMENT_3D('',#1795,#1443,#1444);
#1202=AXIS2_PLACEMENT_3D('',#1798,#1445,#1446);
#1203=AXIS2_PLACEMENT_3D('',#1800,#1448,#1449);
#1204=AXIS2_PLACEMENT_3D('',#1801,#1450,#1451);
#1205=AXIS2_PLACEMENT_3D('',#1804,#1452,#1453);
#1206=AXIS2_PLACEMENT_3D('',#1806,#1455,#1456);
#1207=AXIS2_PLACEMENT_3D('',#1807,#1457,#1458);
#1208=AXIS2_PLACEMENT_3D('',#1810,#1459,#1460);
#1209=AXIS2_PLACEMENT_3D('',#1813,#1463,#1464);
#1210=AXIS2_PLACEMENT_3D('',#1815,#1466,#1467);
#1211=AXIS2_PLACEMENT_3D('',#1818,#1469,#1470);
#1212=AXIS2_PLACEMENT_3D('',#1819,#1471,#1472);
#1213=AXIS2_PLACEMENT_3D('',#1822,#1474,#1475);
#1214=AXIS2_PLACEMENT_3D('',#1823,#1476,#1477);
#1215=AXIS2_PLACEMENT_3D('',#1825,#1478,#1479);
#1216=AXIS2_PLACEMENT_3D('',#1828,#1481,#1482);
#1217=AXIS2_PLACEMENT_3D('',#1829,#1483,#1484);
#1218=AXIS2_PLACEMENT_3D('',#1832,#1485,#1486);
#1219=AXIS2_PLACEMENT_3D('',#1833,#1487,#1488);
#1220=AXIS2_PLACEMENT_3D('',#1836,#1490,#1491);
#1221=AXIS2_PLACEMENT_3D('',#1837,#1492,#1493);
#1222=AXIS2_PLACEMENT_3D('',#1839,#1494,#1495);
#1223=AXIS2_PLACEMENT_3D('',#1841,#1497,#1498);
#1224=AXIS2_PLACEMENT_3D('',#1843,#1499,#1500);
#1225=AXIS2_PLACEMENT_3D('',#1845,#1502,#1503);
#1226=AXIS2_PLACEMENT_3D('',#1848,#1504,#1505);
#1227=AXIS2_PLACEMENT_3D('',#1852,#1507,#1508);
#1228=AXIS2_PLACEMENT_3D('',#1854,#1510,#1511);
#1229=AXIS2_PLACEMENT_3D('',#1857,#1514,#1515);
#1230=AXIS2_PLACEMENT_3D('',#1859,#1517,#1518);
#1231=AXIS2_PLACEMENT_3D('',#1861,#1520,#1521);
#1232=AXIS2_PLACEMENT_3D('',#1863,#1523,#1524);
#1233=AXIS2_PLACEMENT_3D('',#1865,#1526,#1527);
#1234=AXIS2_PLACEMENT_3D('',#1867,#1529,#1530);
#1235=AXIS2_PLACEMENT_3D('',#1869,#1532,#1533);
#1236=AXIS2_PLACEMENT_3D('',#1870,#1534,#1535);
#1237=AXIS2_PLACEMENT_3D('',#1872,#1536,#1537);
#1238=AXIS2_PLACEMENT_3D('',#1874,#1539,#1540);
#1239=AXIS2_PLACEMENT_3D('',#1876,#1541,#1542);
#1240=AXIS2_PLACEMENT_3D('',#1878,#1544,#1545);
#1241=AXIS2_PLACEMENT_3D('',#1880,#1546,#1547);
#1242=AXIS2_PLACEMENT_3D('',#1882,#1549,#1550);
#1243=AXIS2_PLACEMENT_3D('',#1883,#1551,#1552);
#1244=AXIS2_PLACEMENT_3D('',#1885,#1553,#1554);
#1245=AXIS2_PLACEMENT_3D('',#1886,#1555,#1556);
#1246=AXIS2_PLACEMENT_3D('',#1887,#1557,#1558);
#1247=AXIS2_PLACEMENT_3D('',#1888,#1559,#1560);
#1248=AXIS2_PLACEMENT_3D('',#1890,#1562,#1563);
#1249=AXIS2_PLACEMENT_3D('',#1892,#1564,#1565);
#1250=AXIS2_PLACEMENT_3D('',#1895,#1567,#1568);
#1251=AXIS2_PLACEMENT_3D('',#1896,#1569,#1570);
#1252=AXIS2_PLACEMENT_3D('',#1898,#1572,#1573);
#1253=AXIS2_PLACEMENT_3D('',#1900,#1575,#1576);
#1254=DIRECTION('axis',(0.,0.,1.));
#1255=DIRECTION('refdir',(1.,0.,0.));
#1256=DIRECTION('center_axis',(-1.,0.,0.));
#1257=DIRECTION('ref_axis',(0.,-0.824512702592055,-0.56584344412951));
#1258=DIRECTION('',(0.,-0.824512702592055,-0.56584344412951));
#1259=DIRECTION('',(0.,-0.565843444129511,0.824512702592054));
#1260=DIRECTION('',(0.,-0.824512702592055,-0.56584344412951));
#1261=DIRECTION('',(0.,-0.565843444129511,0.824512702592054));
#1262=DIRECTION('center_axis',(-4.31408307542741E-32,0.824512702592054,
0.565843444129511));
#1263=DIRECTION('ref_axis',(-1.,2.61026913700288E-17,-3.80352566239202E-17));
#1264=DIRECTION('',(-1.,-3.5570162957273E-32,-2.44109562566067E-32));
#1265=DIRECTION('',(0.,-0.565843444129511,0.824512702592054));
#1266=DIRECTION('',(-1.,2.61026913700288E-17,-3.80352566239202E-17));
#1267=DIRECTION('center_axis',(1.,-2.03414329701863E-16,-1.39598413149914E-16));
#1268=DIRECTION('ref_axis',(2.46708545620196E-16,0.824512702592055,0.56584344412951));
#1269=DIRECTION('',(2.46708545620196E-16,0.824512702592055,0.56584344412951));
#1270=DIRECTION('',(0.,-0.565843444129511,0.824512702592054));
#1271=DIRECTION('',(2.46708545620196E-16,0.824512702592055,0.56584344412951));
#1272=DIRECTION('center_axis',(0.,-0.824512702592054,-0.565843444129511));
#1273=DIRECTION('ref_axis',(1.,0.,0.));
#1274=DIRECTION('',(1.,0.,0.));
#1275=DIRECTION('',(1.,0.,0.));
#1276=DIRECTION('center_axis',(0.,-0.565843444129511,0.824512702592054));
#1277=DIRECTION('ref_axis',(1.,0.,0.));
#1278=DIRECTION('',(-1.,0.,0.));
#1279=DIRECTION('',(0.,-0.824512702592054,-0.565843444129511));
#1280=DIRECTION('',(1.,0.,0.));
#1281=DIRECTION('',(0.,0.824512702592054,0.565843444129511));
#1282=DIRECTION('center_axis',(1.,0.,0.));
#1283=DIRECTION('ref_axis',(0.,-0.824512702592055,-0.56584344412951));
#1284=DIRECTION('',(0.,0.56584344412951,-0.824512702592055));
#1285=DIRECTION('',(0.,-0.824512702592055,-0.56584344412951));
#1286=DIRECTION('',(0.,0.56584344412951,-0.824512702592055));
#1287=DIRECTION('',(0.,0.824512702592055,0.56584344412951));
#1288=DIRECTION('',(0.,0.56584344412951,-0.824512702592055));
#1289=DIRECTION('center_axis',(0.,-0.824512702592055,-0.56584344412951));
#1290=DIRECTION('ref_axis',(-1.,0.,0.));
#1291=DIRECTION('',(0.,0.56584344412951,-0.824512702592055));
#1292=DIRECTION('',(-1.,0.,0.));
#1293=DIRECTION('center_axis',(0.,0.56584344412951,-0.824512702592055));
#1294=DIRECTION('ref_axis',(-0.707106781186546,-0.58301852317729,-0.400111736433929));
#1295=DIRECTION('center_axis',(0.,-0.56584344412951,0.824512702592055));
#1296=DIRECTION('ref_axis',(1.,0.,0.));
#1297=DIRECTION('',(0.,0.56584344412951,-0.824512702592055));
#1298=DIRECTION('center_axis',(0.,-0.56584344412951,0.824512702592055));
#1299=DIRECTION('ref_axis',(1.,0.,0.));
#1300=DIRECTION('',(0.,0.56584344412951,-0.824512702592055));
#1301=DIRECTION('center_axis',(0.,0.824512702592055,0.56584344412951));
#1302=DIRECTION('ref_axis',(1.,0.,0.));
#1303=DIRECTION('',(1.,0.,0.));
#1304=DIRECTION('',(0.,0.56584344412951,-0.824512702592055));
#1305=DIRECTION('',(1.,0.,0.));
#1306=DIRECTION('center_axis',(0.,0.56584344412951,-0.824512702592055));
#1307=DIRECTION('ref_axis',(1.,0.,0.));
#1308=DIRECTION('center_axis',(0.,-0.56584344412951,0.824512702592055));
#1309=DIRECTION('ref_axis',(1.,0.,0.));
#1310=DIRECTION('',(0.,0.56584344412951,-0.824512702592055));
#1311=DIRECTION('center_axis',(0.,-0.56584344412951,0.824512702592055));
#1312=DIRECTION('ref_axis',(1.,0.,0.));
#1313=DIRECTION('center_axis',(-1.,6.53852133224226E-17,4.48723157147135E-17));
#1314=DIRECTION('ref_axis',(7.93016446161089E-17,0.824512702592055,0.56584344412951));
#1315=DIRECTION('',(7.93016446161089E-17,0.824512702592055,0.56584344412951));
#1316=DIRECTION('',(0.,0.56584344412951,-0.824512702592055));
#1317=DIRECTION('',(7.93016446161089E-17,0.824512702592055,0.56584344412951));
#1318=DIRECTION('center_axis',(0.,0.56584344412951,-0.824512702592055));
#1319=DIRECTION('ref_axis',(1.,0.,0.));
#1320=DIRECTION('center_axis',(0.,-0.56584344412951,0.824512702592055));
#1321=DIRECTION('ref_axis',(1.,0.,0.));
#1322=DIRECTION('',(0.,0.56584344412951,-0.824512702592055));
#1323=DIRECTION('center_axis',(0.,-0.56584344412951,0.824512702592055));
#1324=DIRECTION('ref_axis',(1.,0.,0.));
#1325=DIRECTION('center_axis',(0.,-0.824512702592055,-0.56584344412951));
#1326=DIRECTION('ref_axis',(-1.,0.,0.));
#1327=DIRECTION('',(-1.,0.,0.));
#1328=DIRECTION('',(0.,-0.56584344412951,0.824512702592055));
#1329=DIRECTION('',(-1.,0.,0.));
#1330=DIRECTION('center_axis',(0.,-0.824512702592055,-0.56584344412951));
#1331=DIRECTION('ref_axis',(-1.,0.,0.));
#1332=DIRECTION('',(-1.,0.,0.));
#1333=DIRECTION('',(0.,0.56584344412951,-0.824512702592055));
#1334=DIRECTION('',(-1.,0.,0.));
#1335=DIRECTION('center_axis',(0.,0.56584344412951,-0.824512702592055));
#1336=DIRECTION('ref_axis',(-0.707106781186548,0.583018523177288,0.400111736433928));
#1337=DIRECTION('center_axis',(0.,-0.56584344412951,0.824512702592055));
#1338=DIRECTION('ref_axis',(1.,0.,0.));
#1339=DIRECTION('',(0.,0.56584344412951,-0.824512702592055));
#1340=DIRECTION('center_axis',(0.,-0.56584344412951,0.824512702592055));
#1341=DIRECTION('ref_axis',(1.,0.,0.));
#1342=DIRECTION('center_axis',(1.,6.53852133224226E-17,4.48723157147135E-17));
#1343=DIRECTION('ref_axis',(7.93016446161089E-17,-0.824512702592055,-0.56584344412951));
#1344=DIRECTION('',(7.93016446161089E-17,-0.824512702592055,-0.56584344412951));
#1345=DIRECTION('',(7.93016446161089E-17,-0.824512702592055,-0.56584344412951));
#1346=DIRECTION('center_axis',(0.,-0.56584344412951,0.824512702592055));
#1347=DIRECTION('ref_axis',(1.,0.,0.));
#1348=DIRECTION('',(0.,-0.824512702592055,-0.56584344412951));
#1349=DIRECTION('',(-1.,0.,0.));
#1350=DIRECTION('center_axis',(0.,-0.56584344412951,0.824512702592055));
#1351=DIRECTION('ref_axis',(1.,0.,0.));
#1352=DIRECTION('',(-1.,0.,0.));
#1353=DIRECTION('',(0.,0.824512702592055,0.56584344412951));
#1354=DIRECTION('center_axis',(0.,-0.56584344412951,0.824512702592055));
#1355=DIRECTION('ref_axis',(0.,0.824512702592055,0.56584344412951));
#1356=DIRECTION('',(-1.,0.,0.));
#1357=DIRECTION('center_axis',(0.,-0.56584344412951,0.824512702592055));
#1358=DIRECTION('ref_axis',(0.,0.824512702592055,0.56584344412951));
#1359=DIRECTION('',(0.,-0.824512702592055,-0.56584344412951));
#1360=DIRECTION('center_axis',(0.,-0.56584344412951,0.824512702592055));
#1361=DIRECTION('ref_axis',(1.,0.,0.));
#1362=DIRECTION('center_axis',(0.,-0.56584344412951,0.824512702592055));
#1363=DIRECTION('ref_axis',(1.,0.,0.));
#1364=DIRECTION('center_axis',(0.,-0.56584344412951,0.824512702592055));
#1365=DIRECTION('ref_axis',(1.,0.,0.));
#1366=DIRECTION('center_axis',(0.,-0.56584344412951,0.824512702592055));
#1367=DIRECTION('ref_axis',(1.,0.,0.));
#1368=DIRECTION('',(0.,0.824512702592055,0.56584344412951));
#1369=DIRECTION('center_axis',(0.,0.824512702592055,0.56584344412951));
#1370=DIRECTION('ref_axis',(1.,0.,0.));
#1371=DIRECTION('',(0.,0.56584344412951,-0.824512702592055));
#1372=DIRECTION('center_axis',(-1.,0.,0.));
#1373=DIRECTION('ref_axis',(0.,0.824512702592055,0.56584344412951));
#1374=DIRECTION('center_axis',(0.,0.56584344412951,-0.824512702592055));
#1375=DIRECTION('ref_axis',(-1.,0.,0.));
#1376=DIRECTION('',(1.,0.,0.));
#1377=DIRECTION('',(0.,-0.824512702592055,-0.56584344412951));
#1378=DIRECTION('center_axis',(0.,-0.56584344412951,0.824512702592055));
#1379=DIRECTION('ref_axis',(0.,0.824512702592055,0.56584344412951));
#1380=DIRECTION('',(1.,0.,0.));
#1381=DIRECTION('center_axis',(0.,-0.56584344412951,0.824512702592055));
#1382=DIRECTION('ref_axis',(0.,0.824512702592055,0.56584344412951));
#1383=DIRECTION('',(0.,0.824512702592055,0.56584344412951));
#1384=DIRECTION('center_axis',(0.707106781186548,0.,-0.707106781186548));
#1385=DIRECTION('ref_axis',(0.707106781186548,0.,0.707106781186548));
#1386=DIRECTION('',(-0.479191960434112,0.735357144597524,-0.479191960434112));
#1387=DIRECTION('',(0.,-1.,0.));
#1388=DIRECTION('',(0.707106781186548,0.,0.707106781186548));
#1389=DIRECTION('',(0.,-1.,0.));
#1390=DIRECTION('center_axis',(0.,-0.545956969516501,-0.837813217511134));
#1391=DIRECTION('ref_axis',(-1.,0.,0.));
#1392=DIRECTION('',(0.,-0.837813217511134,0.545956969516501));
#1393=DIRECTION('',(-1.,0.,0.));
#1394=DIRECTION('',(-0.47919196043406,-0.735357144597548,0.479191960434128));
#1395=DIRECTION('',(0.,-0.837813217511134,0.545956969516501));
#1396=DIRECTION('center_axis',(-0.707106781186598,0.,-0.707106781186498));
#1397=DIRECTION('ref_axis',(-0.707106781186498,0.,0.707106781186598));
#1398=DIRECTION('',(0.,1.,0.));
#1399=DIRECTION('',(0.707106781186548,0.,-0.707106781186548));
#1400=DIRECTION('',(0.,1.,0.));
#1401=DIRECTION('center_axis',(0.,0.623694221475779,0.781668419534601));
#1402=DIRECTION('ref_axis',(1.,0.,0.));
#1403=DIRECTION('',(-1.,0.,0.));
#1404=DIRECTION('',(3.55187905720675E-17,0.781668419534601,-0.62369422147578));
#1405=DIRECTION('',(0.,0.781668419534601,-0.62369422147578));
#1406=DIRECTION('center_axis',(-1.,0.,0.));
#1407=DIRECTION('ref_axis',(0.,0.965926637809781,0.258816016446995));
#1408=DIRECTION('',(0.,0.,1.));
#1409=DIRECTION('',(0.,-1.,0.));
#1410=DIRECTION('',(0.,0.,1.));
#1411=DIRECTION('',(0.,-1.,0.));
#1412=DIRECTION('center_axis',(1.,0.,0.));
#1413=DIRECTION('ref_axis',(0.,0.707106781186549,0.707106781186546));
#1414=DIRECTION('',(0.,0.,1.));
#1415=DIRECTION('',(0.,-0.342017196923782,0.939693693183262));
#1416=DIRECTION('',(0.,0.,1.));
#1417=DIRECTION('',(0.,1.,0.));
#1418=DIRECTION('center_axis',(0.,0.,-1.));
#1419=DIRECTION('ref_axis',(0.,1.,0.));
#1420=DIRECTION('',(1.,0.,0.));
#1421=DIRECTION('center_axis',(0.,0.,1.));
#1422=DIRECTION('ref_axis',(0.527050610820192,0.849833897672988,0.));
#1423=DIRECTION('',(1.,0.,0.));
#1424=DIRECTION('center_axis',(0.,0.,1.));
#1425=DIRECTION('ref_axis',(1.,0.,0.));
#1426=DIRECTION('center_axis',(0.,0.,1.));
#1427=DIRECTION('ref_axis',(1.,0.,0.));
#1428=DIRECTION('center_axis',(-1.,0.,0.));
#1429=DIRECTION('ref_axis',(0.,-1.,0.));
#1430=DIRECTION('',(0.,0.,-1.));
#1431=DIRECTION('',(0.,-1.,0.));
#1432=DIRECTION('',(0.,0.,1.));
#1433=DIRECTION('',(0.,0.342017196923782,-0.939693693183262));
#1434=DIRECTION('',(0.,0.,-1.));
#1435=DIRECTION('center_axis',(-1.,0.,0.));
#1436=DIRECTION('ref_axis',(0.,0.707106781186549,0.707106781186546));
#1437=DIRECTION('',(0.,1.,0.));
#1438=DIRECTION('',(0.,0.,1.));
#1439=DIRECTION('',(0.,1.,0.));
#1440=DIRECTION('center_axis',(0.,1.,0.));
#1441=DIRECTION('ref_axis',(0.,0.,1.));
#1442=DIRECTION('',(-1.,0.,0.));
#1443=DIRECTION('center_axis',(0.,0.,-1.));
#1444=DIRECTION('ref_axis',(0.,-1.,0.));
#1445=DIRECTION('center_axis',(0.,0.,1.));
#1446=DIRECTION('ref_axis',(1.,0.,0.));
#1447=DIRECTION('',(8.65956056235493E-17,0.707106781186547,-0.707106781186547));
#1448=DIRECTION('center_axis',(0.,0.,1.));
#1449=DIRECTION('ref_axis',(1.,0.,0.));
#1450=DIRECTION('center_axis',(0.,0.,-1.));
#1451=DIRECTION('ref_axis',(0.,-1.,0.));
#1452=DIRECTION('center_axis',(0.,0.,1.));
#1453=DIRECTION('ref_axis',(1.,0.,0.));
#1454=DIRECTION('',(8.65956056235493E-17,0.707106781186547,-0.707106781186547));
#1455=DIRECTION('center_axis',(0.,0.,1.));
#1456=DIRECTION('ref_axis',(1.,0.,0.));
#1457=DIRECTION('center_axis',(0.,0.,1.));
#1458=DIRECTION('ref_axis',(1.,0.,0.));
#1459=DIRECTION('center_axis',(0.,0.,1.));
#1460=DIRECTION('ref_axis',(1.,0.,0.));
#1461=DIRECTION('',(0.,0.,1.));
#1462=DIRECTION('',(0.,0.,1.));
#1463=DIRECTION('center_axis',(0.,1.,0.));
#1464=DIRECTION('ref_axis',(-1.,0.,0.));
#1465=DIRECTION('',(-1.,0.,0.));
#1466=DIRECTION('center_axis',(0.,0.,1.));
#1467=DIRECTION('ref_axis',(1.,0.,0.));
#1468=DIRECTION('',(0.,0.,1.));
#1469=DIRECTION('center_axis',(0.,0.,1.));
#1470=DIRECTION('ref_axis',(1.,0.,0.));
#1471=DIRECTION('center_axis',(0.,0.,1.));
#1472=DIRECTION('ref_axis',(1.,0.,0.));
#1473=DIRECTION('',(0.,0.,1.));
#1474=DIRECTION('center_axis',(0.,0.,1.));
#1475=DIRECTION('ref_axis',(1.,0.,0.));
#1476=DIRECTION('center_axis',(0.,0.,1.));
#1477=DIRECTION('ref_axis',(1.,0.,0.));
#1478=DIRECTION('center_axis',(0.,0.,1.));
#1479=DIRECTION('ref_axis',(1.,0.,0.));
#1480=DIRECTION('',(0.,0.,-1.));
#1481=DIRECTION('center_axis',(0.,0.,-1.));
#1482=DIRECTION('ref_axis',(1.,0.,0.));
#1483=DIRECTION('center_axis',(0.,0.,1.));
#1484=DIRECTION('ref_axis',(-1.,0.,0.));
#1485=DIRECTION('center_axis',(0.,0.,1.));
#1486=DIRECTION('ref_axis',(-1.,0.,0.));
#1487=DIRECTION('center_axis',(0.,0.,1.));
#1488=DIRECTION('ref_axis',(-1.,0.,0.));
#1489=DIRECTION('',(0.,0.,-1.));
#1490=DIRECTION('center_axis',(0.,0.,-1.));
#1491=DIRECTION('ref_axis',(-1.,0.,0.));
#1492=DIRECTION('center_axis',(0.,0.,1.));
#1493=DIRECTION('ref_axis',(1.,0.,0.));
#1494=DIRECTION('center_axis',(0.,0.,-1.));
#1495=DIRECTION('ref_axis',(1.,0.,0.));
#1496=DIRECTION('',(0.707106781186547,-8.65956056235493E-17,-0.707106781186548));
#1497=DIRECTION('center_axis',(0.,0.,1.));
#1498=DIRECTION('ref_axis',(1.,0.,0.));
#1499=DIRECTION('center_axis',(0.,0.,-1.));
#1500=DIRECTION('ref_axis',(1.,0.,0.));
#1501=DIRECTION('',(0.707106781186547,-8.65956056235493E-17,-0.707106781186548));
#1502=DIRECTION('center_axis',(0.,0.,1.));
#1503=DIRECTION('ref_axis',(0.527050610820192,0.849833897672988,0.));
#1504=DIRECTION('center_axis',(0.,0.,-1.));
#1505=DIRECTION('ref_axis',(0.527050610820192,0.849833897672988,0.));
#1506=DIRECTION('',(0.,0.,1.));
#1507=DIRECTION('center_axis',(0.,0.,-1.));
#1508=DIRECTION('ref_axis',(0.527050610820192,0.849833897672988,0.));
#1509=DIRECTION('',(0.,0.,1.));
#1510=DIRECTION('center_axis',(0.,1.,0.));
#1511=DIRECTION('ref_axis',(-1.,0.,0.));
#1512=DIRECTION('',(1.,0.,0.));
#1513=DIRECTION('',(1.,0.,0.));
#1514=DIRECTION('center_axis',(0.,1.,0.));
#1515=DIRECTION('ref_axis',(-1.,0.,0.));
#1516=DIRECTION('',(-1.,0.,0.));
#1517=DIRECTION('center_axis',(0.,0.,1.));
#1518=DIRECTION('ref_axis',(1.,0.,0.));
#1519=DIRECTION('',(1.,0.,0.));
#1520=DIRECTION('center_axis',(0.,1.,0.));
#1521=DIRECTION('ref_axis',(-1.,0.,0.));
#1522=DIRECTION('',(-1.,0.,0.));
#1523=DIRECTION('center_axis',(0.,0.,1.));
#1524=DIRECTION('ref_axis',(1.,0.,0.));
#1525=DIRECTION('',(1.,0.,0.));
#1526=DIRECTION('center_axis',(0.,1.,0.));
#1527=DIRECTION('ref_axis',(-1.,0.,0.));
#1528=DIRECTION('',(1.,0.,0.));
#1529=DIRECTION('center_axis',(0.,0.,1.));
#1530=DIRECTION('ref_axis',(1.,0.,0.));
#1531=DIRECTION('',(1.,0.,0.));
#1532=DIRECTION('center_axis',(-1.,0.,0.));
#1533=DIRECTION('ref_axis',(0.,0.707106781186549,0.707106781186546));
#1534=DIRECTION('center_axis',(0.,-0.56584344412951,0.824512702592055));
#1535=DIRECTION('ref_axis',(1.,0.,0.));
#1536=DIRECTION('center_axis',(0.,-0.56584344412951,0.824512702592055));
#1537=DIRECTION('ref_axis',(1.,0.,0.));
#1538=DIRECTION('',(0.,-0.56584344412951,0.824512702592055));
#1539=DIRECTION('center_axis',(0.,-0.56584344412951,0.824512702592055));
#1540=DIRECTION('ref_axis',(1.,0.,0.));
#1541=DIRECTION('center_axis',(0.,-0.56584344412951,0.824512702592055));
#1542=DIRECTION('ref_axis',(1.,0.,0.));
#1543=DIRECTION('',(0.,-0.56584344412951,0.824512702592055));
#1544=DIRECTION('center_axis',(0.,-0.56584344412951,0.824512702592055));
#1545=DIRECTION('ref_axis',(1.,0.,0.));
#1546=DIRECTION('center_axis',(0.,-0.56584344412951,0.824512702592055));
#1547=DIRECTION('ref_axis',(1.,0.,0.));
#1548=DIRECTION('',(0.,-0.56584344412951,0.824512702592055));
#1549=DIRECTION('center_axis',(0.,-0.56584344412951,0.824512702592055));
#1550=DIRECTION('ref_axis',(1.,0.,0.));
#1551=DIRECTION('center_axis',(0.,-0.56584344412951,0.824512702592055));
#1552=DIRECTION('ref_axis',(1.,0.,0.));
#1553=DIRECTION('center_axis',(0.,-0.56584344412951,0.824512702592055));
#1554=DIRECTION('ref_axis',(1.,0.,0.));
#1555=DIRECTION('center_axis',(0.,-0.56584344412951,0.824512702592055));
#1556=DIRECTION('ref_axis',(1.,0.,0.));
#1557=DIRECTION('center_axis',(0.,-0.56584344412951,0.824512702592055));
#1558=DIRECTION('ref_axis',(1.,0.,0.));
#1559=DIRECTION('center_axis',(0.,-0.56584344412951,0.824512702592055));
#1560=DIRECTION('ref_axis',(1.,0.,0.));
#1561=DIRECTION('',(0.,-0.56584344412951,0.824512702592055));
#1562=DIRECTION('center_axis',(0.,0.342017196923782,-0.939693693183262));
#1563=DIRECTION('ref_axis',(0.,0.939693693183262,0.342017196923782));
#1564=DIRECTION('center_axis',(0.,-0.342017196923782,0.939693693183262));
#1565=DIRECTION('ref_axis',(1.,-4.15046745955627E-14,-1.51063187583187E-14));
#1566=DIRECTION('',(1.,0.,0.));
#1567=DIRECTION('center_axis',(0.,-0.342017196923782,0.939693693183262));
#1568=DIRECTION('ref_axis',(0.,0.939693693183262,0.342017196923782));
#1569=DIRECTION('center_axis',(0.,-0.342017196923782,0.939693693183262));
#1570=DIRECTION('ref_axis',(0.,0.939693693183262,0.342017196923782));
#1571=DIRECTION('',(-1.71587025671097E-10,-0.342017196923782,0.939693693183262));
#1572=DIRECTION('center_axis',(0.,0.939693693183262,0.342017196923782));
#1573=DIRECTION('ref_axis',(1.,0.,0.));
#1574=DIRECTION('',(2.95905812190394E-10,-0.342017196923782,0.939693693183262));
#1575=DIRECTION('center_axis',(0.,-0.342017196923782,0.939693693183262));
#1576=DIRECTION('ref_axis',(1.,0.,0.));
#1577=CARTESIAN_POINT('',(0.,0.,0.));
#1578=CARTESIAN_POINT('Origin',(-5.03202430176825,79.8521281963177,-15.6058776159155));
#1579=CARTESIAN_POINT('',(-5.03202430176825,79.8521281963177,-15.6058776159155));
#1580=CARTESIAN_POINT('',(-5.03202430176825,72.4312828079877,-20.6986271874922));
#1581=CARTESIAN_POINT('',(-5.03202430176825,77.5856396594133,-17.1613147556591));
#1582=CARTESIAN_POINT('',(-5.03202430176825,78.2004311829037,-13.1991250370493));
#1583=CARTESIAN_POINT('',(-5.03202430176825,79.8521281963177,-15.6058776159155));
#1584=CARTESIAN_POINT('',(-5.03202430176825,70.7795857945737,-18.291874608626));
#1585=CARTESIAN_POINT('',(-5.03202430176825,78.2004311829037,-13.1991250370493));
#1586=CARTESIAN_POINT('',(-5.03202430176825,72.4312828079877,-20.6986271874922));
#1587=CARTESIAN_POINT('Origin',(7.00145552413,79.8521281963177,-15.6058776159155));
#1588=CARTESIAN_POINT('',(7.00145552413,79.8521281963177,-15.6058776159155));
#1589=CARTESIAN_POINT('',(3.5010916430975,79.8521281963177,-15.6058776159155));
#1590=CARTESIAN_POINT('',(7.00145552413,78.2004311829037,-13.1991250370493));
#1591=CARTESIAN_POINT('',(7.00145552413,79.8521281963177,-15.6058776159155));
#1592=CARTESIAN_POINT('',(7.00145552413,78.2004311829037,-13.1991250370493));
#1593=CARTESIAN_POINT('Origin',(7.00145552412999,72.4312828079877,-20.6986271874922));
#1594=CARTESIAN_POINT('',(7.00145552412999,72.4312828079877,-20.6986271874922));
#1595=CARTESIAN_POINT('',(7.00145552412999,73.8752169652483,-19.7076895414474));
#1596=CARTESIAN_POINT('',(7.00145552412999,70.7795857945737,-18.291874608626));
#1597=CARTESIAN_POINT('',(7.00145552412999,72.4312828079877,-20.6986271874922));
#1598=CARTESIAN_POINT('',(7.00145552412999,70.7795857945737,-18.291874608626));
#1599=CARTESIAN_POINT('Origin',(-5.03202430176825,72.4312828079877,-20.6986271874922));
#1600=CARTESIAN_POINT('',(-2.51564826985162,72.4312828079877,-20.6986271874922));
#1601=CARTESIAN_POINT('',(-5.03202430176825,70.7795857945737,-18.291874608626));
#1602=CARTESIAN_POINT('Origin',(0.984715611180874,74.4900084887387,-15.7454998228376));
#1603=CARTESIAN_POINT('',(5.00145552413,70.7798168595752,-18.2917160342149));
#1604=CARTESIAN_POINT('',(-4.99854447587,70.7798168595752,-18.2917160342149));
#1605=CARTESIAN_POINT('',(2.99308556765544,70.7798168595752,-18.2917160342149));
#1606=CARTESIAN_POINT('',(5.00145552413,76.5514057777196,-14.3308119253083));
#1607=CARTESIAN_POINT('',(5.00145552413,75.5207071332291,-15.038155874073));
#1608=CARTESIAN_POINT('',(-4.99854447587,76.5514057777196,-14.3308119253083));
#1609=CARTESIAN_POINT('',(-2.00691443234456,76.5514057777195,-14.3308119253083));
#1610=CARTESIAN_POINT('',(-4.99854447587,72.6349126741569,-17.0186079285263));
#1611=CARTESIAN_POINT('Origin',(5.00145552413,73.110511793968,-9.31695018084602));
#1612=CARTESIAN_POINT('',(5.00145552413,67.3389228758236,-13.2778542897526));
#1613=CARTESIAN_POINT('',(5.00145552413,67.3389228758236,-13.2778542897526));
#1614=CARTESIAN_POINT('',(5.00145552413,68.5756919297117,-12.4290891235583));
#1615=CARTESIAN_POINT('',(5.00145552413,71.6424283880571,-10.3244608814798));
#1616=CARTESIAN_POINT('',(5.00145552413,69.7073788179707,-14.0781145287424));
#1617=CARTESIAN_POINT('',(5.00145552413,68.5756919297117,-12.4290891235583));
#1618=CARTESIAN_POINT('',(5.00145552413,74.242198682227,-10.9659755860301));
#1619=CARTESIAN_POINT('',(5.00145552413,78.7770185464814,-7.85383664331915));
#1620=CARTESIAN_POINT('',(5.00145552413,73.110511793968,-9.31695018084601));
#1621=CARTESIAN_POINT('Origin',(5.00145552413,67.3389228758236,-13.2778542897526));
#1622=CARTESIAN_POINT('',(-4.99854447587,67.3389228758236,-13.2778542897526));
#1623=CARTESIAN_POINT('',(-4.99854447587,67.3389228758236,-13.2778542897526));
#1624=CARTESIAN_POINT('',(-4.485174054235,67.3389228758236,-13.2778542897526));
#1625=CARTESIAN_POINT('Origin',(14.00145552413,93.7233293587617,4.8291359223865));
#1626=CARTESIAN_POINT('',(14.00145552413,95.7846111152418,6.24374453271027));
#1627=CARTESIAN_POINT('',(16.50145552413,93.7233293587617,4.8291359223865));
#1628=CARTESIAN_POINT('Origin',(14.00145552413,93.7233293587617,4.8291359223865));
#1629=CARTESIAN_POINT('',(14.00145552413,96.9162980035009,4.59471912752617));
#1630=CARTESIAN_POINT('',(14.00145552413,95.7846111152418,6.24374453271027));
#1631=CARTESIAN_POINT('',(16.50145552413,94.8550162470207,3.18011051720239));
#1632=CARTESIAN_POINT('Origin',(14.00145552413,94.8550162470207,3.1801105172024));
#1633=CARTESIAN_POINT('',(16.50145552413,93.7233293587617,4.8291359223865));
#1634=CARTESIAN_POINT('Origin',(-13.99854447587,95.7846111152418,6.24374453271027));
#1635=CARTESIAN_POINT('',(-13.99854447587,95.7846111152418,6.24374453271027));
#1636=CARTESIAN_POINT('',(-13.985174054235,95.7846111152419,6.24374453271027));
#1637=CARTESIAN_POINT('',(-13.99854447587,96.9162980035009,4.59471912752617));
#1638=CARTESIAN_POINT('',(-13.99854447587,95.7846111152418,6.24374453271027));
#1639=CARTESIAN_POINT('',(14.00145552413,96.9162980035009,4.59471912752617));
#1640=CARTESIAN_POINT('Origin',(-13.99854447587,93.7233293587617,4.8291359223865));
#1641=CARTESIAN_POINT('',(-16.49854447587,93.7233293587617,4.8291359223865));
#1642=CARTESIAN_POINT('Origin',(-13.99854447587,93.7233293587617,4.8291359223865));
#1643=CARTESIAN_POINT('',(-16.49854447587,94.8550162470207,3.18011051720239));
#1644=CARTESIAN_POINT('',(-16.49854447587,93.7233293587617,4.8291359223865));
#1645=CARTESIAN_POINT('Origin',(-13.99854447587,94.8550162470207,3.1801105172024));
#1646=CARTESIAN_POINT('Origin',(-16.49854447587,70.6369736861919,-11.0144805132345));
#1647=CARTESIAN_POINT('',(-16.49854447587,70.6369736861918,-11.0144805132345));
#1648=CARTESIAN_POINT('',(-16.49854447587,70.405659334169,-11.1732260476741));
#1649=CARTESIAN_POINT('',(-16.49854447587,71.7686605744508,-12.6635059184186));
#1650=CARTESIAN_POINT('',(-16.49854447587,70.6369736861918,-11.0144805132345));
#1651=CARTESIAN_POINT('',(-16.49854447587,94.8550162470207,3.1801105172024));
#1652=CARTESIAN_POINT('Origin',(-13.99854447587,70.6369736861918,-11.0144805132345));
#1653=CARTESIAN_POINT('',(-13.99854447587,68.5756919297117,-12.4290891235583));
#1654=CARTESIAN_POINT('Origin',(-13.99854447587,70.6369736861918,-11.0144805132345));
#1655=CARTESIAN_POINT('',(-13.99854447587,69.7073788179707,-14.0781145287424));
#1656=CARTESIAN_POINT('',(-13.99854447587,68.5756919297117,-12.4290891235583));
#1657=CARTESIAN_POINT('Origin',(-13.99854447587,71.7686605744509,-12.6635059184186));
#1658=CARTESIAN_POINT('Origin',(-4.99854447587,68.5756919297117,-12.4290891235583));
#1659=CARTESIAN_POINT('',(-4.99854447587,68.5756919297117,-12.4290891235583));
#1660=CARTESIAN_POINT('',(-9.485174054235,68.5756919297117,-12.4290891235583));
#1661=CARTESIAN_POINT('',(-4.99854447587,69.7073788179707,-14.0781145287424));
#1662=CARTESIAN_POINT('',(-4.99854447587,68.5756919297117,-12.4290891235583));
#1663=CARTESIAN_POINT('',(-13.99854447587,69.7073788179707,-14.0781145287424));
#1664=CARTESIAN_POINT('Origin',(14.00145552413,68.5756919297117,-12.4290891235583));
#1665=CARTESIAN_POINT('',(14.00145552413,68.5756919297117,-12.4290891235583));
#1666=CARTESIAN_POINT('',(0.0148259457650024,68.5756919297117,-12.4290891235583));
#1667=CARTESIAN_POINT('',(14.00145552413,69.7073788179707,-14.0781145287424));
#1668=CARTESIAN_POINT('',(14.00145552413,68.5756919297117,-12.4290891235583));
#1669=CARTESIAN_POINT('',(-13.99854447587,69.7073788179707,-14.0781145287424));
#1670=CARTESIAN_POINT('Origin',(14.00145552413,70.6369736861918,-11.0144805132345));
#1671=CARTESIAN_POINT('',(16.50145552413,70.6369736861918,-11.0144805132345));
#1672=CARTESIAN_POINT('Origin',(14.00145552413,70.6369736861918,-11.0144805132345));
#1673=CARTESIAN_POINT('',(16.50145552413,71.7686605744508,-12.6635059184186));
#1674=CARTESIAN_POINT('',(16.50145552413,70.6369736861918,-11.0144805132345));
#1675=CARTESIAN_POINT('Origin',(14.00145552413,71.7686605744509,-12.6635059184186));
#1676=CARTESIAN_POINT('Origin',(16.50145552413,93.7233293587617,4.8291359223865));
#1677=CARTESIAN_POINT('',(16.50145552413,81.9488371704539,-3.25141782986358));
#1678=CARTESIAN_POINT('',(16.50145552413,71.7686605744509,-12.6635059184186));
#1679=CARTESIAN_POINT('Origin',(0.0014555241299985,83.3118384107358,-4.74169770060815));
#1680=CARTESIAN_POINT('',(-4.99854447587,74.242198682227,-10.9659755860301));
#1681=CARTESIAN_POINT('',(-4.99854447587,75.8912240874092,-9.83428869777243));
#1682=CARTESIAN_POINT('',(-2.49854447587,74.242198682227,-10.9659755860302));
#1683=CARTESIAN_POINT('Origin',(-13.9718036326,70.1743449821462,-11.3319715821137));
#1684=CARTESIAN_POINT('',(19.2,66.4756503351059,-13.8702976882915));
#1685=CARTESIAN_POINT('',(-19.19854447587,66.4756503351059,-13.8702976882915));
#1686=CARTESIAN_POINT('',(-6.9855379352675,66.4756503351059,-13.8702976882915));
#1687=CARTESIAN_POINT('',(19.2,96.4480972610966,6.69907928343509));
#1688=CARTESIAN_POINT('',(19.2,76.4988915282663,-6.99158581368948));
#1689=CARTESIAN_POINT('',(19.0504696481503,97.094199232501,7.14248368898156));
#1690=CARTESIAN_POINT('Origin',(17.2,96.4480972610957,6.69907928343446));
#1691=CARTESIAN_POINT('',(-19.0490141240203,97.094199232501,7.14248368898156));
#1692=CARTESIAN_POINT('',(-20.7789080980473,97.0941992325112,7.14248368898853));
#1693=CARTESIAN_POINT('',(-19.19854447587,96.4480972610729,6.69907928341882));
#1694=CARTESIAN_POINT('Origin',(-17.19854447587,96.4480972610888,6.69907928342975));
#1695=CARTESIAN_POINT('',(-19.19854447587,70.5204915616477,-11.0944194229964));
#1696=CARTESIAN_POINT('',(-14.94854447587,93.7233293587627,4.82913592238515));
#1697=CARTESIAN_POINT('Origin',(-13.99854447587,93.7233293587627,4.82913592238515));
#1698=CARTESIAN_POINT('',(13.05145552413,93.7233293587627,4.82913592238515));
#1699=CARTESIAN_POINT('Origin',(14.00145552413,93.7233293587627,4.82913592238515));
#1700=CARTESIAN_POINT('',(13.05145552413,70.6369736861927,-11.0144805132358));
#1701=CARTESIAN_POINT('Origin',(14.00145552413,70.6369736861927,-11.0144805132358));
#1702=CARTESIAN_POINT('',(-14.94854447587,70.6369736861927,-11.0144805132358));
#1703=CARTESIAN_POINT('Origin',(-13.99854447587,70.6369736861927,-11.0144805132358));
#1704=CARTESIAN_POINT('',(-4.99854447587,68.7566339289849,-12.3049129359331));
#1705=CARTESIAN_POINT('Origin',(-4.99854447587,73.110511793968,-9.31695018084601));
#1706=CARTESIAN_POINT('',(-4.99854447587,73.110511793968,-9.31695018084601));
#1707=CARTESIAN_POINT('Origin',(-4.99854447587,67.3389228758236,-13.2778542897526));
#1708=CARTESIAN_POINT('Origin',(0.000727762064999249,75.3191511225088,-18.7167518954027));
#1709=CARTESIAN_POINT('',(-19.19854447587,69.654519386997,-22.6042538354828));
#1710=CARTESIAN_POINT('',(19.2,69.654519386997,-22.6042538354828));
#1711=CARTESIAN_POINT('',(0.000727762064998694,69.654519386997,-22.6042538354828));
#1712=CARTESIAN_POINT('',(-19.19854447587,99.6269663129806,-2.03487686376304));
#1713=CARTESIAN_POINT('',(-19.19854447587,74.2692501635781,-19.4372739355467));
#1714=CARTESIAN_POINT('',(-17.1985444743341,101.329946251998,-0.86616226306883));
#1715=CARTESIAN_POINT('Origin',(-17.19854447587,99.6269663129806,-2.03487686376304));
#1716=CARTESIAN_POINT('',(17.1999999973445,101.329946251998,-0.86616226306883));
#1717=CARTESIAN_POINT('',(-7.9989083569025,101.329946252003,-0.866162263065657));
#1718=CARTESIAN_POINT('',(19.2,99.6269663129874,-2.03487686375835));
#1719=CARTESIAN_POINT('Origin',(17.2,99.6269663129874,-2.03487686375833));
#1720=CARTESIAN_POINT('',(19.2,80.2476501301966,-15.3344403262397));
#1721=CARTESIAN_POINT('Origin',(18.7,5.756096031384,11.81037676032));
#1722=CARTESIAN_POINT('',(19.2,16.0753169388852,12.31037676032));
#1723=CARTESIAN_POINT('',(18.2,17.609894321885,11.31037676032));
#1724=CARTESIAN_POINT('',(20.4033167810715,14.2287342220688,13.5136935413915));
#1725=CARTESIAN_POINT('',(19.2,0.9576354902146,12.31037676032));
#1726=CARTESIAN_POINT('',(19.2,11.0751236231,12.31037676032));
#1727=CARTESIAN_POINT('',(18.2,0.9576354902146,11.31037676032));
#1728=CARTESIAN_POINT('',(18.2,0.9576354902146,11.31037676032));
#1729=CARTESIAN_POINT('',(18.2,10.55455657255,11.31037676032));
#1730=CARTESIAN_POINT('Origin',(18.2,17.609894321885,11.31037676032));
#1731=CARTESIAN_POINT('',(19.2,55.4939101080519,-13.3765606374612));
#1732=CARTESIAN_POINT('',(-18.1985444758701,17.609894321885,11.31037676032));
#1733=CARTESIAN_POINT('',(9.6003638810325,17.609894321885,11.31037676032));
#1734=CARTESIAN_POINT('',(-19.19854447587,16.0753169388852,12.31037676032));
#1735=CARTESIAN_POINT('',(-16.2228545532658,20.6417433929346,9.33468683771542));
#1736=CARTESIAN_POINT('',(-19.19854447587,31.7349810386938,2.10583166973809));
#1737=CARTESIAN_POINT('Origin',(-18.69854447587,5.756096031384,11.81037676032));
#1738=CARTESIAN_POINT('',(-18.19854447587,0.9576354902146,11.31037676032));
#1739=CARTESIAN_POINT('',(-18.19854447587,0.9576354902146,11.31037676032));
#1740=CARTESIAN_POINT('',(-19.19854447587,0.9576354902146,12.31037676032));
#1741=CARTESIAN_POINT('',(-19.19854447587,0.9576354902146,12.31037676032));
#1742=CARTESIAN_POINT('',(-19.19854447587,0.9576354902146,12.31037676032));
#1743=CARTESIAN_POINT('Origin',(-19.19854447587,17.609894321885,25.11975089476));
#1744=CARTESIAN_POINT('',(19.2,17.609894321885,25.11975089476));
#1745=CARTESIAN_POINT('',(-19.19854447587,17.609894321885,25.11975089476));
#1746=CARTESIAN_POINT('',(-9.5989083569025,17.609894321885,25.11975089476));
#1747=CARTESIAN_POINT('',(19.2,17.609894321885,25.11975089476));
#1748=CARTESIAN_POINT('',(-19.19854447587,17.609894321885,25.11975089476));
#1749=CARTESIAN_POINT('Origin',(-19.19854447587,50.45744858485,-0.04367677909055));
#1750=CARTESIAN_POINT('',(-19.19854447587,11.10989432188,14.11037676032));
#1751=CARTESIAN_POINT('',(-19.19854447587,11.10989432188,34.51037676032));
#1752=CARTESIAN_POINT('',(-19.19854447587,11.10989432188,7.03334999061473));
#1753=CARTESIAN_POINT('',(-19.19854447587,0.957635490214601,34.51037676032));
#1754=CARTESIAN_POINT('',(-19.19854447587,30.783671453365,34.51037676032));
#1755=CARTESIAN_POINT('',(-19.19854447587,0.9576354902146,37.31037676032));
#1756=CARTESIAN_POINT('',(-19.19854447587,0.9576354902146,12.31037676032));
#1757=CARTESIAN_POINT('',(-19.19854447587,15.609894321885,37.31037676032));
#1758=CARTESIAN_POINT('',(-19.19854447587,15.00705906913,37.31037676032));
#1759=CARTESIAN_POINT('',(-19.19854447587,17.609894321885,35.31037676032));
#1760=CARTESIAN_POINT('Origin',(-19.19854447587,15.609894321885,35.31037676032));
#1761=CARTESIAN_POINT('',(-19.19854447587,17.609894321885,26.31037676032));
#1762=CARTESIAN_POINT('',(-19.19854447587,104.449821910716,-15.2856930140436));
#1763=CARTESIAN_POINT('',(-19.19854447587,0.9576354902146,14.11037676032));
#1764=CARTESIAN_POINT('',(-19.19854447587,0.9576354902146,12.31037676032));
#1765=CARTESIAN_POINT('',(-19.19854447587,25.7075420375323,14.11037676032));
#1766=CARTESIAN_POINT('Origin',(19.2,-2.390105678116,11.31037676032));
#1767=CARTESIAN_POINT('',(15.1,0.9576354902146,11.31037676032));
#1768=CARTESIAN_POINT('',(15.1,0.9576354902146,11.31037676032));
#1769=CARTESIAN_POINT('',(-15.1,0.9576354902146,11.31037676032));
#1770=CARTESIAN_POINT('Origin',(-1.06581410364E-14,-23.39010567812,11.31037676032));
#1771=CARTESIAN_POINT('',(-18.19854447587,0.9576354902146,11.31037676032));
#1772=CARTESIAN_POINT('',(11.,10.259894321886,11.310376760322));
#1773=CARTESIAN_POINT('Origin',(11.,7.109894321884,11.31037676032));
#1774=CARTESIAN_POINT('',(-11.,10.259894321886,11.310376760322));
#1775=CARTESIAN_POINT('Origin',(-11.,7.109894321884,11.31037676032));
#1776=CARTESIAN_POINT('Origin',(19.2,90.81272324731,-42.));
#1777=CARTESIAN_POINT('',(19.2,11.10989432188,34.51037676032));
#1778=CARTESIAN_POINT('',(19.2,11.10989432188,14.11037676032));
#1779=CARTESIAN_POINT('',(19.2,11.10989432188,-13.94481161984));
#1780=CARTESIAN_POINT('',(19.2,0.9576354902146,14.11037676032));
#1781=CARTESIAN_POINT('',(19.2,45.8851793687623,14.11037676032));
#1782=CARTESIAN_POINT('',(19.2,0.9576354902146,12.31037676032));
#1783=CARTESIAN_POINT('',(19.2,96.4480972610966,6.69907928343509));
#1784=CARTESIAN_POINT('',(19.2,17.609894321885,35.31037676032));
#1785=CARTESIAN_POINT('',(19.2,17.609894321885,-15.1724058099205));
#1786=CARTESIAN_POINT('',(19.2,15.609894321885,37.31037676032));
#1787=CARTESIAN_POINT('Origin',(19.2,15.609894321885,35.31037676032));
#1788=CARTESIAN_POINT('',(19.2,0.9576354902146,37.31037676032));
#1789=CARTESIAN_POINT('',(19.2,15.00705906913,37.31037676032));
#1790=CARTESIAN_POINT('',(19.2,0.957635490214601,34.51037676032));
#1791=CARTESIAN_POINT('',(19.2,0.9576354902146,12.31037676032));
#1792=CARTESIAN_POINT('',(19.2,50.961308784595,34.51037676032));
#1793=CARTESIAN_POINT('Origin',(0.000727762064998139,17.609894321885,11.6551883801589));
#1794=CARTESIAN_POINT('',(19.2,17.609894321885,35.31037676032));
#1795=CARTESIAN_POINT('Origin',(11.,7.109894321884,12.0603767627));
#1796=CARTESIAN_POINT('',(9.35,7.109894321884,12.81037676032));
#1797=CARTESIAN_POINT('',(11.,8.759894321886,12.810376760322));
#1798=CARTESIAN_POINT('Origin',(11.,7.109894321884,12.81037676032));
#1799=CARTESIAN_POINT('',(11.,9.509894319508,12.0603767627));
#1800=CARTESIAN_POINT('Origin',(11.,7.109894321884,12.81037676032));
#1801=CARTESIAN_POINT('Origin',(-11.,7.109894321884,12.0603767627));
#1802=CARTESIAN_POINT('',(-12.65,7.109894321884,12.81037676032));
#1803=CARTESIAN_POINT('',(-11.,8.759894321886,12.810376760322));
#1804=CARTESIAN_POINT('Origin',(-11.,7.109894321884,12.81037676032));
#1805=CARTESIAN_POINT('',(-11.,9.509894319508,12.0603767627));
#1806=CARTESIAN_POINT('Origin',(-11.,7.109894321884,12.81037676032));
#1807=CARTESIAN_POINT('Origin',(-1.06581410364E-14,-23.39010567812,26.31037676032));
#1808=CARTESIAN_POINT('',(15.1,0.9576354902146,14.11037676032));
#1809=CARTESIAN_POINT('',(-15.1,0.9576354902146,14.11037676032));
#1810=CARTESIAN_POINT('Origin',(-1.06581410364E-14,-23.39010567812,14.11037676032));
#1811=CARTESIAN_POINT('',(-15.1,0.9576354902146,11.31037676032));
#1812=CARTESIAN_POINT('',(15.1,0.9576354902146,11.31037676032));
#1813=CARTESIAN_POINT('Origin',(42.44006885219,0.9576354902146,26.31037676032));
#1814=CARTESIAN_POINT('',(13.670034426095,0.9576354902146,14.11037676032));
#1815=CARTESIAN_POINT('Origin',(11.,7.109894321884,14.31037676032));
#1816=CARTESIAN_POINT('',(9.35,7.109894321884,14.11037676032));
#1817=CARTESIAN_POINT('',(9.35,7.109894321884,14.31037676032));
#1818=CARTESIAN_POINT('Origin',(11.,7.109894321884,14.11037676032));
#1819=CARTESIAN_POINT('Origin',(-11.,7.109894321884,14.31037676032));
#1820=CARTESIAN_POINT('',(-12.65,7.109894321884,14.11037676032));
#1821=CARTESIAN_POINT('',(-12.65,7.109894321884,14.31037676032));
#1822=CARTESIAN_POINT('Origin',(-11.,7.109894321884,14.11037676032));
#1823=CARTESIAN_POINT('Origin',(-11.,7.109894321884,14.31037676032));
#1824=CARTESIAN_POINT('',(-12.65,7.109894321884,35.81037676032));
#1825=CARTESIAN_POINT('Origin',(-11.,7.109894321884,35.81037676032));
#1826=CARTESIAN_POINT('',(-12.65,7.109894321884,34.51037676032));
#1827=CARTESIAN_POINT('',(-12.65,7.109894321884,14.31037676032));
#1828=CARTESIAN_POINT('Origin',(-11.,7.109894321884,34.51037676032));
#1829=CARTESIAN_POINT('Origin',(11.,7.109894321884,14.31037676032));
#1830=CARTESIAN_POINT('',(12.65,7.109894321884,35.81037676032));
#1831=CARTESIAN_POINT('',(9.35,7.109894321884,35.81037676032));
#1832=CARTESIAN_POINT('Origin',(11.,7.109894321884,35.81037676032));
#1833=CARTESIAN_POINT('Origin',(11.,7.109894321884,35.81037676032));
#1834=CARTESIAN_POINT('',(12.65,7.109894321884,34.51037676032));
#1835=CARTESIAN_POINT('',(12.65,7.109894321884,14.31037676032));
#1836=CARTESIAN_POINT('Origin',(11.,7.109894321884,34.51037676032));
#1837=CARTESIAN_POINT('Origin',(11.,7.109894321884,36.41037676032));
#1838=CARTESIAN_POINT('',(7.85,7.109894321884,37.31037676032));
#1839=CARTESIAN_POINT('Origin',(11.,7.109894321884,37.31037676032));
#1840=CARTESIAN_POINT('',(8.75,7.109894321884,36.41037676032));
#1841=CARTESIAN_POINT('Origin',(-11.,7.109894321884,36.41037676032));
#1842=CARTESIAN_POINT('',(-14.15,7.109894321884,37.31037676032));
#1843=CARTESIAN_POINT('Origin',(-11.,7.109894321884,37.31037676032));
#1844=CARTESIAN_POINT('',(-13.25,7.109894321884,36.41037676032));
#1845=CARTESIAN_POINT('Origin',(-1.06581410364E-14,-23.39010567812,14.31037676032));
#1846=CARTESIAN_POINT('',(-15.1,0.9576354902146,34.51037676032));
#1847=CARTESIAN_POINT('',(15.1,0.9576354902146,34.51037676032));
#1848=CARTESIAN_POINT('Origin',(-1.06581410364E-14,-23.39010567812,34.51037676032));
#1849=CARTESIAN_POINT('',(15.1,0.9576354902146,37.31037676032));
#1850=CARTESIAN_POINT('',(15.1,0.9576354902146,26.31037676032));
#1851=CARTESIAN_POINT('',(-15.1,0.9576354902146,37.31037676032));
#1852=CARTESIAN_POINT('Origin',(-1.06581410364E-14,-23.39010567812,37.31037676032));
#1853=CARTESIAN_POINT('',(-15.1,0.9576354902146,14.31037676032));
#1854=CARTESIAN_POINT('Origin',(42.44006885219,0.9576354902146,26.31037676032));
#1855=CARTESIAN_POINT('',(13.670034426095,0.9576354902146,34.51037676032));
#1856=CARTESIAN_POINT('',(-19.19854447587,0.9576354902146,37.31037676032));
#1857=CARTESIAN_POINT('Origin',(42.44006885219,0.9576354902146,26.31037676032));
#1858=CARTESIAN_POINT('',(28.770034426095,0.9576354902146,14.11037676032));
#1859=CARTESIAN_POINT('Origin',(19.2,-3.623767952377E-14,14.11037676032));
#1860=CARTESIAN_POINT('',(15.1,11.10989432188,14.11037676032));
#1861=CARTESIAN_POINT('Origin',(15.1,11.10989432188,26.31037676032));
#1862=CARTESIAN_POINT('',(-15.1,11.10989432188,34.51037676032));
#1863=CARTESIAN_POINT('Origin',(19.2,-3.623767952377E-14,34.51037676032));
#1864=CARTESIAN_POINT('',(28.770034426095,0.9576354902146,34.51037676032));
#1865=CARTESIAN_POINT('Origin',(42.44006885219,0.9576354902146,26.31037676032));
#1866=CARTESIAN_POINT('',(16.1,0.9576354902146,37.31037676032));
#1867=CARTESIAN_POINT('Origin',(19.2,17.60989432188,37.31037676032));
#1868=CARTESIAN_POINT('',(19.2,15.609894321885,37.31037676032));
#1869=CARTESIAN_POINT('Origin',(19.2,15.609894321885,35.31037676032));
#1870=CARTESIAN_POINT('Origin',(14.00145552413,70.6369736861927,-11.0144805132358));
#1871=CARTESIAN_POINT('',(13.05145552413,73.4661909068408,-15.1370440261969));
#1872=CARTESIAN_POINT('Origin',(14.00145552413,73.466190906838,-15.1370440261988));
#1873=CARTESIAN_POINT('',(13.05145552413,70.6369736861927,-11.0144805132358));
#1874=CARTESIAN_POINT('Origin',(14.00145552413,93.7233293587627,4.82913592238515));
#1875=CARTESIAN_POINT('',(13.05145552413,96.5525465794123,0.706572409421892));
#1876=CARTESIAN_POINT('Origin',(14.00145552413,96.5525465794177,0.706572409425612));
#1877=CARTESIAN_POINT('',(13.05145552413,93.7233293587627,4.82913592238515));
#1878=CARTESIAN_POINT('Origin',(-13.99854447587,93.7233293587627,4.82913592238515));
#1879=CARTESIAN_POINT('',(-14.94854447587,96.5525465794123,0.706572409421892));
#1880=CARTESIAN_POINT('Origin',(-13.99854447587,96.5525465794177,0.706572409425612));
#1881=CARTESIAN_POINT('',(-14.94854447587,93.7233293587627,4.82913592238515));
#1882=CARTESIAN_POINT('Origin',(0.,38.046839350213,-39.4445020078995));
#1883=CARTESIAN_POINT('Origin',(0.,38.046839350213,-39.4445020078995));
#1884=CARTESIAN_POINT('',(-14.94854447587,73.4661909068408,-15.1370440261969));
#1885=CARTESIAN_POINT('Origin',(-13.99854447587,73.466190906838,-15.1370440261988));
#1886=CARTESIAN_POINT('Origin',(0.,38.046839350213,-39.4445020078995));
#1887=CARTESIAN_POINT('Origin',(0.,38.046839350213,-39.4445020078995));
#1888=CARTESIAN_POINT('Origin',(-13.99854447587,70.6369736861927,-11.0144805132358));
#1889=CARTESIAN_POINT('',(-14.94854447587,70.6369736861927,-11.0144805132358));
#1890=CARTESIAN_POINT('Origin',(-41.55854447587,55.7864016227327,-7.89217840577566));
#1891=CARTESIAN_POINT('',(17.2,98.2605565546241,7.56699889517882));
#1892=CARTESIAN_POINT('Origin',(17.2,96.3811691682571,6.8829645013312));
#1893=CARTESIAN_POINT('',(-17.19854447587,98.2605565546241,7.56699889517882));
#1894=CARTESIAN_POINT('',(-17.19854447587,98.2605565546241,7.56699889517882));
#1895=CARTESIAN_POINT('Origin',(-17.19854447587,96.3811691682571,6.8829645013312));
#1896=CARTESIAN_POINT('Origin',(-17.19854447587,137.178847718494,-105.208829639567));
#1897=CARTESIAN_POINT('',(-17.19854447178,106.420851387677,-14.8534456266534));
#1898=CARTESIAN_POINT('Origin',(-15.99854447587,95.8664361761566,14.1448547474621));
#1899=CARTESIAN_POINT('',(17.19999999294,106.420851387677,-14.8534456266534));
#1900=CARTESIAN_POINT('Origin',(17.2,135.79079553336,-101.395150397939));
#1901=UNCERTAINTY_MEASURE_WITH_UNIT(LENGTH_MEASURE(0.01),#1905,
'DISTANCE_ACCURACY_VALUE',
'Maximum model space distance between geometric entities at asserted c
onnectivities');
#1902=UNCERTAINTY_MEASURE_WITH_UNIT(LENGTH_MEASURE(0.01),#1905,
'DISTANCE_ACCURACY_VALUE',
'Maximum model space distance between geometric entities at asserted c
onnectivities');
#1903=(
GEOMETRIC_REPRESENTATION_CONTEXT(3)
GLOBAL_UNCERTAINTY_ASSIGNED_CONTEXT((#1901))
GLOBAL_UNIT_ASSIGNED_CONTEXT((#1905,#1907,#1908))
REPRESENTATION_CONTEXT('','3D')
);
#1904=(
GEOMETRIC_REPRESENTATION_CONTEXT(3)
GLOBAL_UNCERTAINTY_ASSIGNED_CONTEXT((#1902))
GLOBAL_UNIT_ASSIGNED_CONTEXT((#1905,#1907,#1908))
REPRESENTATION_CONTEXT('','3D')
);
#1905=(
LENGTH_UNIT()
NAMED_UNIT(*)
SI_UNIT(.MILLI.,.METRE.)
);
#1906=(
LENGTH_UNIT()
NAMED_UNIT(*)
SI_UNIT($,.METRE.)
);
#1907=(
NAMED_UNIT(*)
PLANE_ANGLE_UNIT()
SI_UNIT($,.RADIAN.)
);
#1908=(
NAMED_UNIT(*)
SI_UNIT($,.STERADIAN.)
SOLID_ANGLE_UNIT()
);
#1909=SHAPE_DEFINITION_REPRESENTATION(#1910,#1911);
#1910=PRODUCT_DEFINITION_SHAPE('',$,#1913);
#1911=SHAPE_REPRESENTATION('',(#1150),#1903);
#1912=PRODUCT_DEFINITION_CONTEXT('part definition',#1917,'design');
#1913=PRODUCT_DEFINITION('UVC32_MOUNT','uvc32_mount_dyx0914',#1914,#1912);
#1914=PRODUCT_DEFINITION_FORMATION('',$,#1919);
#1915=PRODUCT_RELATED_PRODUCT_CATEGORY('uvc32_mount_dyx0914',
'uvc32_mount_dyx0914',(#1919));
#1916=APPLICATION_PROTOCOL_DEFINITION('international standard',
'automotive_design',2009,#1917);
#1917=APPLICATION_CONTEXT(
'Core Data for Automotive Mechanical Design Process');
#1918=PRODUCT_CONTEXT('part definition',#1917,'mechanical');
#1919=PRODUCT('UVC32_MOUNT','uvc32_mount_dyx0914',$,(#1918));
#1920=PRESENTATION_STYLE_ASSIGNMENT((#1921));
#1921=SURFACE_STYLE_USAGE(.BOTH.,#1922);
#1922=SURFACE_SIDE_STYLE('',(#1923));
#1923=SURFACE_STYLE_FILL_AREA(#1924);
#1924=FILL_AREA_STYLE('\X2\94A2\X0\ - \X2\7F0E5149\X0\',(#1925));
#1925=FILL_AREA_STYLE_COLOUR('\X2\94A2\X0\ - \X2\7F0E5149\X0\',#1926);
#1926=COLOUR_RGB('\X2\94A2\X0\ - \X2\7F0E5149\X0\',0.627450980392157,0.627450980392157,
0.627450980392157);
ENDSEC;
END-ISO-10303-21;
